<svg xmlns="http://www.w3.org/2000/svg" xmlns:xlink="http://www.w3.org/1999/xlink" width="500" zoomAndPan="magnify" viewBox="0 0 375 374.999991" height="500" preserveAspectRatio="xMidYMid meet" version="1.0"><defs><clipPath id="id1"><path d="M 31.535156 4 L 156 4 L 156 110 L 31.535156 110 Z M 31.535156 4 " clip-rule="nonzero"/></clipPath><clipPath id="id2"><path d="M 279 8 L 337.535156 8 L 337.535156 375 L 279 375 Z M 279 8 " clip-rule="nonzero"/></clipPath></defs><path fill="rgb(22.349548%, 15.689087%, 11.369324%)" d="M 188.617188 305.222656 C 188.46875 305.222656 188.320312 305.222656 188.171875 305.148438 C 187.429688 304.925781 187.058594 304.109375 187.355469 303.4375 C 195.078125 281.230469 205.914062 265.113281 219.648438 255.53125 C 220.019531 255.308594 220.390625 255.011719 220.835938 254.710938 C 225.664062 251.445312 235.757812 244.535156 242.589844 232.132812 C 245.335938 227.230469 247.042969 222.550781 247.414062 220.398438 C 246.226562 221.4375 244.296875 223.664062 242.515625 225.671875 C 240.507812 227.972656 238.207031 230.574219 235.683594 233.097656 C 226.035156 242.753906 219.5 249.8125 214.230469 255.382812 C 204.652344 265.632812 200.273438 270.238281 191.882812 275.511719 C 178.894531 283.53125 156.84375 292.667969 149.347656 284.796875 C 146.007812 281.304688 147.34375 276.476562 149.71875 267.785156 C 151.128906 262.734375 152.835938 256.496094 154.394531 248.175781 C 156.25 238.445312 157.289062 230.5 157.734375 224.035156 C 156.101562 223.886719 154.023438 223.664062 151.351562 223.515625 C 145.191406 223.144531 142.144531 223.21875 140.140625 223.292969 C 137.988281 223.367188 136.726562 223.367188 134.128906 222.773438 C 127.597656 221.214844 123.066406 217.945312 114.085938 211.484375 C 111.191406 209.402344 107.625 206.433594 105.027344 201.457031 C 104.0625 199.671875 103.46875 198.484375 103.542969 196.851562 C 103.691406 192.542969 108.070312 190.386719 118.464844 185.1875 L 120.023438 184.445312 C 134.5 177.242188 140.511719 174.269531 145.636719 176.648438 C 145.859375 176.722656 146.007812 176.796875 146.453125 177.09375 C 146.75 177.242188 147.269531 177.539062 148.011719 177.910156 C 142.367188 173.082031 138.878906 171.148438 136.28125 169.664062 C 133.609375 168.179688 131.828125 167.214844 130.121094 164.316406 C 126.484375 158.226562 127.375 151.019531 128.710938 145.300781 C 126.558594 143.519531 124.699219 141.214844 125.144531 138.617188 C 125.515625 136.609375 127.152344 134.828125 128.636719 134.085938 C 129.75 133.492188 130.9375 133.34375 131.753906 133.789062 C 134.128906 134.902344 133.3125 138.023438 132.125 142.40625 C 131.976562 143 131.828125 143.59375 131.679688 144.1875 C 132.941406 145.078125 134.351562 145.820312 135.613281 146.339844 C 138.878906 147.753906 141.773438 148.125 142.21875 147.679688 C 142.292969 147.605469 142.292969 147.234375 142.144531 147.085938 C 142.144531 147.160156 141.996094 147.085938 141.921875 147.085938 C 141.476562 147.011719 140.808594 146.863281 140.214844 146.339844 C 138.507812 145.003906 137.023438 142.40625 137.691406 139.730469 C 138.433594 136.683594 141.476562 134.976562 144.003906 134.976562 C 144.003906 134.976562 144.078125 134.976562 144.078125 134.976562 C 148.085938 134.976562 150.683594 139.0625 152.242188 141.511719 C 153.800781 144.039062 154.320312 145.820312 154.691406 147.234375 C 155.0625 148.496094 155.210938 149.089844 155.878906 149.609375 C 158.328125 151.539062 163.75 150.203125 167.609375 147.828125 C 170.429688 146.117188 172.136719 143.519531 173.621094 141.140625 C 175.328125 138.542969 176.964844 136.089844 179.710938 136.386719 C 181.640625 136.609375 183.570312 138.320312 183.941406 140.175781 C 184.238281 141.585938 183.644531 142.628906 182.902344 143.890625 C 182.53125 144.558594 182.011719 145.375 181.492188 146.488281 C 181.046875 147.457031 180.453125 148.792969 180.15625 149.535156 C 181.9375 149.3125 186.242188 147.234375 188.988281 143.371094 C 193.296875 137.28125 192.03125 128.367188 188.617188 123.09375 C 187.132812 120.863281 185.351562 119.675781 183.570312 118.5625 C 182.308594 117.746094 180.972656 116.925781 179.933594 115.738281 C 166.421875 100.808594 167.089844 80.753906 167.3125 73.253906 C 167.460938 68.203125 169.316406 41.90625 188.171875 23.261719 C 211.335938 0.386719 251.421875 -2.734375 285.71875 15.613281 C 286.386719 15.984375 286.609375 16.800781 286.238281 17.46875 C 285.867188 18.136719 285.050781 18.359375 284.382812 17.988281 C 251.125 0.164062 212.375 3.132812 190.027344 25.269531 C 171.914062 43.167969 170.207031 68.5 169.984375 73.402344 C 169.761719 80.605469 169.09375 99.84375 181.863281 113.957031 C 182.679688 114.847656 183.71875 115.515625 184.980469 116.257812 C 186.910156 117.449219 189.0625 118.785156 190.84375 121.605469 C 194.855469 127.773438 196.191406 137.800781 191.140625 144.929688 C 187.949219 149.386719 182.605469 152.0625 180.007812 152.210938 C 179.042969 152.285156 178.300781 152.0625 177.855469 151.539062 C 176.667969 150.277344 177.632812 148.125 178.96875 145.226562 C 179.5625 143.964844 180.082031 143.074219 180.527344 142.332031 C 181.195312 141.214844 181.34375 140.917969 181.269531 140.621094 C 181.121094 139.953125 180.230469 139.0625 179.414062 138.988281 C 178.375 138.914062 177.261719 140.546875 175.925781 142.554688 C 174.289062 145.003906 172.359375 147.976562 169.019531 150.054688 C 164.492188 152.878906 157.882812 154.585938 154.171875 151.691406 C 152.761719 150.574219 152.390625 149.238281 152.019531 147.902344 C 151.648438 146.636719 151.277344 145.078125 149.941406 143 C 148.679688 140.992188 146.601562 137.726562 144.078125 137.726562 C 142.59375 137.726562 140.808594 138.765625 140.363281 140.472656 C 139.992188 141.960938 140.882812 143.519531 141.921875 144.261719 C 142.070312 144.335938 142.21875 144.410156 142.519531 144.484375 C 143.039062 144.558594 143.929688 144.78125 144.523438 145.597656 C 145.265625 146.714844 145.265625 148.273438 144.523438 149.3125 C 142.445312 152.136719 135.910156 149.460938 134.574219 148.867188 C 134.203125 148.71875 132.71875 148.050781 131.085938 147.011719 C 129.972656 152.136719 129.453125 158.003906 132.421875 162.90625 C 133.757812 165.207031 135.019531 165.875 137.617188 167.289062 C 140.363281 168.847656 144.152344 170.925781 150.238281 176.203125 C 151.5 177.242188 153.429688 178.949219 156.324219 179.246094 L 156.621094 179.246094 C 159.742188 179.46875 162.414062 177.835938 163.378906 177.242188 L 163.675781 177.019531 C 168.5 174.195312 176.148438 179.171875 193 190.015625 C 196.265625 192.097656 196.785156 192.617188 197.527344 193.285156 C 198.121094 193.804688 198.863281 194.546875 202.277344 196.851562 L 202.5 197 C 203.761719 197.890625 204.28125 198.261719 204.652344 199.152344 C 207.472656 205.914062 187.726562 217.574219 187.503906 217.722656 C 182.902344 220.472656 177.113281 223.8125 168.945312 224.703125 C 166.050781 225 164.566406 224.851562 161.820312 224.480469 C 161.449219 224.40625 161.003906 224.40625 160.558594 224.332031 C 160.039062 231.316406 158.925781 239.410156 157.140625 248.621094 C 155.582031 257.015625 153.800781 263.328125 152.390625 268.453125 C 150.015625 276.996094 149.125 280.5625 151.351562 282.863281 C 156.769531 288.507812 175.851562 282.195312 190.472656 273.132812 C 198.566406 268.082031 202.871094 263.476562 212.300781 253.449219 C 217.570312 247.804688 224.175781 240.824219 233.828125 231.09375 C 236.277344 228.640625 238.578125 226.042969 240.582031 223.8125 C 245.261719 218.539062 247.414062 216.089844 249.34375 217.351562 C 252.683594 219.429688 245.855469 232.058594 245.039062 233.46875 C 237.835938 246.46875 227.445312 253.523438 222.394531 256.941406 L 221.207031 257.757812 C 207.992188 266.96875 197.453125 282.640625 189.953125 304.332031 C 189.730469 304.851562 189.210938 305.222656 188.617188 305.222656 Z M 160.632812 221.660156 C 161.152344 221.734375 161.597656 221.808594 162.042969 221.808594 C 164.640625 222.105469 165.902344 222.328125 168.5 222.03125 C 176.074219 221.214844 181.34375 218.09375 186.019531 215.417969 C 195.449219 209.921875 203.019531 202.71875 202.054688 200.265625 C 201.980469 200.117188 201.609375 199.820312 200.867188 199.300781 L 200.644531 199.152344 C 197.15625 196.703125 196.265625 195.960938 195.597656 195.289062 C 195.003906 194.695312 194.558594 194.324219 191.4375 192.320312 C 177.039062 183.035156 168.351562 177.464844 164.9375 179.394531 L 164.714844 179.542969 C 163.527344 180.285156 160.335938 182.292969 156.324219 181.996094 L 156.027344 181.996094 C 155.953125 181.996094 155.953125 181.996094 155.953125 181.996094 C 156.992188 182.589844 157.214844 182.738281 157.585938 183.183594 C 159.445312 185.558594 159.074219 188.382812 158.699219 190.609375 C 158.402344 192.46875 158.328125 193.65625 158.921875 194.25 C 159.296875 194.621094 159.890625 194.546875 161.597656 194.324219 C 162.339844 194.25 163.230469 194.101562 164.269531 194.027344 C 167.164062 193.878906 168.574219 194.25 170.503906 194.769531 C 171.988281 195.214844 173.917969 195.734375 177.335938 196.257812 C 179.785156 196.628906 181.566406 196.777344 183.644531 196.925781 C 186.316406 197.148438 189.285156 197.371094 194.484375 198.113281 C 198.195312 198.632812 199.308594 198.78125 199.382812 200.265625 C 199.382812 200.488281 199.308594 201.011719 198.863281 201.457031 C 197.082031 203.164062 185.128906 205.167969 173.769531 204.351562 C 169.613281 204.054688 167.386719 203.535156 165.085938 203.015625 C 163.453125 202.644531 161.746094 202.199219 159.148438 201.902344 C 160.558594 206.730469 161.078125 213.265625 160.632812 221.660156 Z M 143.558594 220.546875 C 145.488281 220.546875 148.011719 220.621094 151.574219 220.84375 C 154.171875 220.992188 156.25 221.140625 157.957031 221.363281 C 158.476562 211.484375 157.511719 205.390625 156.027344 201.679688 C 155.65625 201.679688 155.359375 201.605469 154.988281 201.605469 C 154.023438 201.53125 153.875 201.53125 152.09375 201.53125 C 150.164062 201.53125 146.378906 201.605469 137.914062 201.605469 C 135.167969 201.605469 126.855469 201.605469 116.683594 199.523438 C 113.714844 198.929688 112.082031 198.558594 112.230469 197.074219 C 112.378906 195.511719 113.34375 195.511719 118.6875 195.660156 C 122.25 195.734375 127.597656 195.960938 133.386719 195.660156 C 140.585938 195.289062 144.449219 194.472656 146.972656 193.878906 C 149.644531 193.285156 151.203125 192.988281 153.28125 194.101562 C 155.136719 195.066406 156.695312 196.777344 157.808594 199.152344 C 161.375 199.523438 163.453125 200.042969 165.53125 200.488281 C 167.757812 201.011719 169.835938 201.53125 173.769531 201.828125 C 181.34375 202.347656 188.394531 201.605469 192.703125 200.789062 C 188.320312 200.191406 185.648438 199.96875 183.199219 199.746094 C 181.046875 199.597656 179.265625 199.449219 176.667969 199.078125 C 173.101562 198.558594 171.023438 197.964844 169.464844 197.519531 C 167.609375 197 166.570312 196.703125 164.121094 196.851562 C 163.15625 196.925781 162.339844 197 161.671875 197.074219 C 159.816406 197.296875 158.253906 197.519531 156.84375 196.332031 C 155.0625 194.769531 155.433594 192.394531 155.730469 190.3125 C 156.027344 188.308594 156.324219 186.378906 155.136719 184.964844 C 154.988281 184.742188 154.617188 184.59375 152.019531 183.257812 L 148.753906 181.550781 C 146.527344 180.359375 145.488281 179.839844 144.894531 179.542969 C 144.523438 179.320312 144.375 179.246094 144.226562 179.171875 C 140.289062 177.390625 134.648438 180.136719 120.988281 186.972656 L 119.429688 187.714844 C 110.523438 192.097656 106.066406 194.324219 105.992188 197.074219 C 105.992188 197.890625 106.289062 198.558594 107.179688 200.265625 C 109.855469 205.242188 113.789062 208.140625 115.421875 209.328125 C 124.105469 215.644531 128.488281 218.761719 134.5 220.171875 C 136.800781 220.695312 137.765625 220.695312 139.84375 220.621094 C 140.957031 220.621094 142.070312 220.546875 143.558594 220.546875 Z M 128.859375 198.484375 C 133.164062 198.855469 136.355469 198.855469 137.839844 198.855469 C 146.304688 198.855469 150.089844 198.855469 152.019531 198.78125 C 153.429688 198.78125 153.875 198.78125 154.542969 198.78125 C 153.726562 197.59375 152.835938 196.851562 152.019531 196.480469 C 150.832031 195.8125 150.164062 195.960938 147.566406 196.480469 C 144.96875 197.074219 140.957031 197.964844 133.535156 198.335938 C 131.902344 198.410156 130.34375 198.484375 128.859375 198.484375 Z M 130.566406 136.238281 C 130.417969 136.238281 130.046875 136.386719 129.527344 136.683594 C 128.636719 137.28125 127.894531 138.246094 127.820312 139.0625 C 127.671875 140.027344 128.339844 141.140625 129.453125 142.257812 C 129.527344 142.035156 129.527344 141.886719 129.601562 141.660156 C 130.046875 139.730469 130.789062 137.058594 130.566406 136.238281 Z M 130.566406 136.238281 " fill-opacity="1" fill-rule="nonzero"/><g clip-path="url(#id1)"><path fill="rgb(22.349548%, 15.689087%, 11.369324%)" d="M 145.488281 109.5 C 145.339844 109.5 145.117188 109.5 144.96875 109.425781 C 144.300781 109.128906 143.929688 108.386719 144.226562 107.644531 C 158.105469 73.179688 153.875 38.265625 133.683594 20.664062 C 115.644531 4.84375 88.546875 6.476562 75.480469 7.292969 C 61.15625 8.183594 47.125 11.824219 33.761719 18.0625 C 33.09375 18.359375 32.277344 18.0625 31.980469 17.394531 C 31.683594 16.726562 31.980469 15.910156 32.648438 15.613281 C 46.308594 9.222656 60.636719 5.511719 75.332031 4.621094 C 87.65625 3.875 116.609375 2.09375 135.539062 18.582031 C 156.621094 36.929688 161.152344 73.179688 146.824219 108.683594 C 146.601562 109.128906 146.082031 109.5 145.488281 109.5 Z M 145.488281 109.5 " fill-opacity="1" fill-rule="nonzero"/></g><path fill="rgb(22.349548%, 15.689087%, 11.369324%)" d="M 289.355469 247.953125 C 289.058594 247.953125 288.835938 247.878906 288.613281 247.730469 C 288.019531 247.285156 287.796875 246.46875 288.242188 245.875 C 294.703125 236.144531 297.003906 227.824219 294.851562 221.140625 C 293.8125 217.871094 292.179688 216.015625 289.355469 212.96875 C 287.5 210.964844 285.199219 208.4375 282.378906 204.722656 C 278.742188 199.96875 277.480469 197.445312 275.847656 194.25 C 274.582031 191.726562 273.097656 188.828125 270.054688 183.925781 C 265.527344 176.722656 257.582031 165.578125 245.707031 153.472656 C 243.628906 151.316406 241.847656 149.683594 240.359375 148.199219 C 236.945312 144.929688 234.273438 142.332031 230.636719 137.429688 C 229.152344 135.421875 228.113281 133.863281 227.222656 132.527344 C 225.589844 130.074219 224.472656 128.441406 221.949219 126.0625 C 219.128906 123.390625 217.273438 122.425781 215.269531 121.457031 C 213.265625 120.417969 211.039062 119.304688 207.695312 116.332031 C 205.097656 114.03125 203.464844 112.097656 202.128906 110.539062 C 200.273438 108.386719 199.160156 107.046875 196.5625 106.15625 C 193.964844 105.265625 189.136719 104.671875 187.355469 106.675781 C 184.164062 110.316406 189.730469 122.871094 196.710938 131.261719 C 198.417969 133.269531 200.050781 134.753906 201.757812 136.238281 C 203.984375 138.246094 206.507812 140.472656 209.703125 144.410156 C 215.195312 151.316406 218.015625 157.707031 219.425781 160.75 L 219.648438 161.269531 C 224.769531 172.710938 234.570312 187.714844 248.75 205.914062 C 249.195312 206.507812 249.121094 207.398438 248.527344 207.84375 C 247.933594 208.289062 247.042969 208.214844 246.597656 207.621094 C 232.269531 189.273438 222.394531 174.046875 217.125 162.386719 L 216.902344 161.792969 C 215.492188 158.597656 212.894531 152.730469 207.546875 146.042969 C 204.503906 142.257812 202.203125 140.175781 199.976562 138.171875 C 198.195312 136.609375 196.488281 135.050781 194.632812 132.898438 C 187.949219 124.875 180.378906 110.390625 185.351562 104.820312 C 188.246094 101.550781 194.335938 102.441406 197.453125 103.558594 C 200.792969 104.671875 202.277344 106.453125 204.207031 108.757812 C 205.46875 110.242188 207.027344 112.097656 209.480469 114.253906 C 212.523438 116.925781 214.527344 117.96875 216.53125 119.007812 C 218.609375 120.046875 220.6875 121.160156 223.804688 124.058594 C 226.554688 126.65625 227.816406 128.441406 229.449219 131.039062 C 230.339844 132.378906 231.378906 133.863281 232.789062 135.867188 C 236.277344 140.546875 238.800781 143 242.21875 146.265625 C 243.777344 147.753906 245.558594 149.460938 247.636719 151.617188 C 259.664062 163.871094 267.679688 175.160156 272.28125 182.515625 C 275.402344 187.492188 276.886719 190.460938 278.222656 193.0625 C 279.78125 196.109375 280.96875 198.558594 284.457031 203.089844 C 287.203125 206.730469 289.429688 209.179688 291.289062 211.113281 C 294.257812 214.304688 296.1875 216.460938 297.375 220.320312 C 299.75 227.824219 297.375 236.960938 290.394531 247.359375 C 290.246094 247.730469 289.800781 247.953125 289.355469 247.953125 Z M 289.355469 247.953125 " fill-opacity="1" fill-rule="nonzero"/><path fill="rgb(22.349548%, 15.689087%, 11.369324%)" d="M 220.910156 125.171875 C 219.796875 123.242188 218.609375 121.308594 217.347656 119.527344 C 215.9375 117.375 214.378906 115.367188 212.820312 113.363281 C 209.851562 109.722656 207.398438 107.269531 204.800781 104.746094 C 202.277344 102.292969 199.679688 99.769531 196.488281 95.832031 C 191.214844 89.445312 190.027344 87.660156 189.433594 86.175781 C 186.910156 79.9375 186.910156 74.515625 189.507812 70.875 C 190.175781 69.910156 192.03125 67.679688 195.078125 66.863281 C 197.75 66.195312 201.089844 67.011719 204.949219 69.390625 C 212.671875 74.144531 216.828125 81.496094 218.3125 84.46875 C 220.539062 89 221.875 90.335938 225.515625 93.902344 C 229.449219 97.765625 236.796875 105.042969 252.089844 123.464844 C 270.277344 145.300781 279.335938 156.21875 284.160156 164.910156 C 284.308594 165.207031 284.457031 165.429688 284.605469 165.726562 C 285.71875 167.734375 286.757812 169.664062 287.722656 171.597656 C 287.871094 171.894531 288.019531 172.117188 288.167969 172.414062 C 291.882812 179.46875 295.445312 186.230469 302.496094 194.695312 C 304.796875 197.445312 307.320312 199.375 309.699219 201.234375 C 313.039062 203.757812 316.527344 206.433594 319.644531 211.335938 C 325.4375 220.472656 324.84375 226.414062 324.320312 228.566406 C 323.503906 231.984375 321.574219 234.210938 319.867188 236.144531 L 319.496094 236.515625 C 313.484375 243.421875 308.140625 251.890625 303.609375 261.695312 C 303.3125 262.363281 303.609375 263.179688 304.277344 263.476562 C 304.5 263.550781 304.648438 263.625 304.871094 263.625 C 305.390625 263.625 305.910156 263.328125 306.132812 262.808594 C 310.515625 253.226562 315.710938 244.984375 321.574219 238.296875 L 321.945312 237.925781 C 323.726562 235.847656 326.03125 233.320312 326.996094 229.234375 C 327.589844 226.785156 328.332031 219.875 321.945312 209.921875 C 318.605469 204.574219 314.894531 201.828125 311.40625 199.078125 C 308.957031 197.222656 306.652344 195.4375 304.574219 192.988281 C 297.449219 184.445312 293.886719 177.613281 290.171875 170.40625 C 289.28125 168.625 288.316406 166.84375 287.277344 164.984375 C 287.054688 164.539062 286.832031 164.09375 286.535156 163.722656 C 285.792969 162.386719 284.976562 160.972656 284.011719 159.5625 C 278.667969 151.316406 269.683594 140.546875 254.167969 121.902344 C 238.800781 103.410156 231.378906 96.054688 227.371094 92.191406 C 223.804688 88.703125 222.765625 87.660156 220.6875 83.429688 C 219.128906 80.308594 214.675781 72.359375 206.359375 67.234375 C 201.90625 64.488281 197.898438 63.449219 194.410156 64.339844 C 190.621094 65.304688 188.320312 67.902344 187.28125 69.390625 C 184.164062 73.847656 184.015625 80.160156 186.910156 87.289062 C 187.652344 89.074219 188.839844 90.929688 194.410156 97.613281 C 197.675781 101.625 200.347656 104.226562 202.945312 106.75 C 205.46875 109.203125 207.84375 111.578125 210.742188 115.144531 C 210.964844 115.367188 211.1875 115.664062 211.335938 115.960938 C 212.820312 117.820312 214.15625 119.675781 215.492188 121.679688 Z M 220.910156 125.171875 " fill-opacity="1" fill-rule="nonzero"/><g clip-path="url(#id2)"><path fill="rgb(22.349548%, 15.689087%, 11.369324%)" d="M 288.09375 172.5625 C 287.722656 170.035156 287.5 167.585938 287.203125 165.058594 C 286.757812 160.75 286.460938 156.441406 286.238281 152.0625 C 285.792969 143.742188 285.792969 135.421875 286.238281 127.253906 C 286.683594 119.15625 287.277344 114.699219 287.945312 110.390625 C 288.539062 106.527344 289.058594 102.441406 289.429688 95.980469 C 289.652344 91.597656 289.429688 83.132812 288.984375 66.34375 C 288.984375 65.601562 288.464844 47.996094 290.765625 26.605469 C 291.359375 20.8125 292.253906 15.835938 296.113281 13.011719 C 299.007812 10.933594 303.757812 10.042969 306.800781 12.121094 C 308.585938 13.382812 309.328125 15.390625 310.292969 21.628906 C 312.890625 38.265625 312.296875 51.859375 312.074219 56.316406 C 311.925781 59.957031 311.777344 61.21875 311.703125 62.035156 C 311.628906 62.777344 311.628906 63.222656 311.628906 64.5625 C 311.628906 71.691406 312.59375 75.925781 313.558594 80.382812 C 314.375 84.023438 315.265625 87.8125 315.710938 93.605469 C 316.082031 98.136719 315.859375 100.363281 315.710938 102.144531 C 315.488281 104.226562 315.414062 105.785156 316.082031 109.425781 C 316.675781 112.546875 317.417969 114.847656 318.160156 117.148438 C 319.125 120.121094 320.089844 122.945312 320.460938 127.328125 C 320.683594 129.925781 320.535156 131.335938 320.386719 133.34375 C 320.3125 134.53125 320.164062 135.867188 320.089844 137.726562 C 319.867188 144.335938 320.535156 148.273438 321.722656 155.402344 C 322.242188 158.300781 322.835938 161.941406 323.503906 166.621094 C 324.992188 176.5 325.214844 180.210938 325.289062 182.441406 C 325.4375 184.445312 325.4375 185.335938 326.253906 188.234375 C 327.738281 193.730469 329.445312 197.519531 331.003906 200.863281 C 333.15625 205.539062 334.714844 208.957031 334.34375 214.378906 C 334.046875 219.355469 332.339844 223.144531 330.039062 227.453125 C 321.203125 244.460938 310.664062 258.054688 302.125 269.046875 L 300.195312 271.574219 C 281.933594 295.195312 280.152344 299.355469 279.484375 303.511719 C 278.964844 306.78125 278 312.871094 287.054688 338.945312 C 291.210938 350.976562 296.039062 362.9375 301.382812 374.449219 C 301.605469 374.96875 302.125 375.265625 302.644531 375.265625 C 302.867188 375.265625 303.015625 375.191406 303.238281 375.117188 C 303.90625 374.820312 304.203125 374.003906 303.90625 373.335938 C 298.636719 361.894531 293.8125 350.011719 289.652344 338.050781 C 280.820312 312.648438 281.785156 306.78125 282.230469 303.960938 C 282.675781 301.0625 283.195312 298.015625 302.347656 273.207031 L 304.277344 270.683594 C 312.816406 259.691406 323.503906 245.949219 332.414062 228.714844 C 334.714844 224.257812 336.644531 220.097656 337.015625 214.527344 C 337.386719 208.511719 335.605469 204.648438 333.378906 199.746094 C 331.894531 196.480469 330.1875 192.765625 328.777344 187.492188 C 328.035156 184.890625 328.035156 184.148438 327.886719 182.21875 C 327.738281 179.914062 327.515625 176.125 326.03125 166.171875 C 325.363281 161.570312 324.695312 157.855469 324.246094 154.957031 C 322.984375 147.753906 322.390625 144.113281 322.6875 137.800781 C 322.761719 136.015625 322.835938 134.679688 322.984375 133.566406 C 323.132812 131.558594 323.28125 129.925781 323.058594 127.105469 C 322.613281 122.425781 321.648438 119.453125 320.609375 116.332031 C 319.867188 114.179688 319.125 111.875 318.605469 108.980469 C 318.011719 105.710938 318.085938 104.375 318.308594 102.441406 C 318.457031 100.585938 318.679688 98.210938 318.308594 93.457031 C 317.863281 87.511719 316.972656 83.652344 316.15625 79.863281 C 315.191406 75.480469 314.226562 71.394531 314.226562 64.636719 C 314.226562 63.449219 314.226562 63.074219 314.300781 62.40625 C 314.375 61.515625 314.523438 60.253906 314.671875 56.539062 C 314.894531 52.007812 315.488281 38.265625 312.816406 21.332031 C 311.851562 14.871094 310.960938 11.898438 308.140625 9.96875 C 303.980469 7.144531 297.894531 8.332031 294.332031 10.859375 C 289.132812 14.574219 288.390625 21.40625 287.871094 26.382812 C 285.570312 47.996094 286.015625 65.75 286.015625 66.492188 C 286.460938 83.207031 286.757812 91.671875 286.460938 95.90625 C 286.089844 102.292969 285.570312 106.082031 284.976562 110.09375 C 284.382812 114.476562 283.714844 119.082031 283.269531 127.253906 C 282.824219 135.496094 282.824219 143.964844 283.269531 152.359375 C 283.417969 154.808594 283.566406 157.261719 283.714844 159.710938 C 283.863281 161.792969 284.085938 163.945312 284.308594 166.023438 Z M 288.09375 172.5625 " fill-opacity="1" fill-rule="nonzero"/></g><path fill="rgb(22.349548%, 15.689087%, 11.369324%)" d="M 270.796875 47.699219 C 270.425781 47.699219 269.980469 47.550781 269.757812 47.179688 C 266.195312 42.648438 258.328125 34.703125 246.078125 32.25 C 222.988281 27.570312 205.765625 47.03125 205.617188 47.253906 C 205.097656 47.847656 204.28125 47.921875 203.6875 47.402344 C 203.09375 46.882812 203.09375 46.066406 203.539062 45.472656 C 204.28125 44.582031 221.949219 24.601562 246.597656 29.578125 C 259.738281 32.25 268.125 40.71875 271.910156 45.472656 C 272.355469 46.066406 272.28125 46.882812 271.6875 47.402344 C 271.390625 47.625 271.09375 47.699219 270.796875 47.699219 Z M 270.796875 47.699219 " fill-opacity="1" fill-rule="nonzero"/><path fill="rgb(22.349548%, 15.689087%, 11.369324%)" d="M 89.363281 62.480469 C 86.839844 62.480469 84.167969 62.257812 81.496094 61.664062 C 68.355469 58.992188 59.96875 50.523438 56.179688 45.769531 C 55.734375 45.175781 55.808594 44.359375 56.402344 43.839844 C 56.996094 43.316406 57.8125 43.464844 58.332031 44.0625 C 61.898438 48.59375 69.765625 56.539062 82.015625 58.992188 C 105.101562 63.671875 122.324219 44.210938 122.472656 43.988281 C 122.992188 43.390625 123.808594 43.390625 124.402344 43.839844 C 124.996094 44.359375 124.996094 45.175781 124.550781 45.769531 C 123.882812 46.585938 109.855469 62.480469 89.363281 62.480469 Z M 89.363281 62.480469 " fill-opacity="1" fill-rule="nonzero"/></svg>