<svg xmlns="http://www.w3.org/2000/svg" xmlns:xlink="http://www.w3.org/1999/xlink" width="500" zoomAndPan="magnify" viewBox="0 0 375 60" height="80" preserveAspectRatio="xMidYMid meet" version="1.0"><path fill="rgb(22.349548%, 15.689087%, 11.369324%)" d="M 133.007812 35.773438 C 133.238281 35.015625 133.347656 34.183594 133.332031 33.269531 C 133.277344 30.46875 131.441406 25.695312 127.773438 26.492188 C 126.746094 26.71875 126.09375 27.632812 126.09375 28.675781 C 126.09375 29.933594 127.117188 30.949219 128.371094 30.949219 C 129.710938 30.949219 133.085938 30.179688 132.414062 34.738281 C 132.382812 35.027344 132.320312 35.289062 132.25 35.550781 C 132.492188 35.625 132.753906 35.703125 133.007812 35.773438 Z M 146.636719 21.167969 C 134.804688 17.378906 120.664062 15.519531 114.632812 25.910156 C 111.566406 31.203125 113.25 37.859375 118.9375 40.53125 C 122.652344 42.289062 127.585938 41.878906 130.609375 39.386719 C 130.21875 39.238281 129.835938 39.101562 129.484375 38.957031 C 126.59375 40.636719 122.28125 40.570312 119.539062 39.285156 C 114.617188 36.972656 113.820312 30.648438 116.699219 26.097656 C 122.515625 16.917969 135.464844 18.617188 146.582031 22.257812 C 146.589844 21.886719 146.613281 21.519531 146.636719 21.167969 Z M 185.15625 25.84375 C 184.019531 29.390625 181.777344 32.703125 178.746094 35.339844 L 177.402344 34.570312 C 178.03125 34.011719 178.636719 33.398438 179.199219 32.742188 C 180.941406 30.699219 182.21875 28.332031 182.910156 25.84375 Z M 150.078125 27.757812 C 150.914062 30.25 152.496094 32.449219 155.089844 33.933594 C 159.046875 36.183594 159.101562 33.113281 162.039062 31.9375 C 163.421875 31.382812 165.210938 31.289062 166.496094 32.136719 C 168.800781 33.640625 168.121094 36.363281 166.023438 37.640625 C 161.867188 40.160156 152.996094 35.949219 149.9375 31.234375 C 149.230469 30.136719 148.683594 29 148.289062 27.820312 C 146.378906 22.101562 148.328125 15 152.199219 10.585938 C 161.136719 0.40625 178.699219 1.738281 184.539062 14.199219 C 185.109375 15.421875 185.5 16.667969 185.730469 17.921875 L 183.132812 17.921875 C 182.871094 16.839844 182.492188 15.789062 181.984375 14.757812 C 176.542969 3.871094 160.167969 2.640625 152.828125 12.027344 C 149.703125 16.03125 148.449219 22.859375 150.078125 27.757812 Z M 143.125 39.507812 C 152.171875 41.578125 160.691406 41.976562 168.3125 39.5 C 170.664062 38.734375 172.875 37.765625 174.859375 36.492188 L 175.132812 36.65625 L 176.210938 37.273438 C 175.796875 37.542969 175.375 37.804688 174.933594 38.0625 C 164.34375 43.867188 153.207031 44.160156 141.769531 41.601562 C 135.34375 40.164062 129.132812 37.925781 123.0625 35.433594 C 120.648438 34.445312 118.304688 33.421875 115.988281 32.375 C 115.988281 31.601562 116.078125 30.84375 116.203125 30.136719 C 118.960938 31.308594 121.730469 32.460938 124.472656 33.535156 C 130.558594 35.917969 136.738281 38.0625 143.125 39.507812 Z M 20.484375 48.4375 C 13.71875 38.113281 19.382812 22.566406 25.953125 16.667969 C 35.757812 7.847656 51.667969 6.433594 66.476562 10.253906 C 78.714844 13.417969 91.816406 19.351562 104.875 25.171875 C 107.300781 26.253906 109.816406 27.367188 112.371094 28.484375 C 112.222656 29.113281 112.109375 29.8125 112.050781 30.566406 C 109.324219 29.285156 106.558594 27.972656 103.679688 26.613281 C 92.675781 21.40625 81.632812 16.261719 70.761719 13.335938 C 56.640625 9.535156 38.917969 9.96875 28.191406 18.328125 C 19.574219 25.039062 15.785156 38.492188 20.484375 48.4375 Z M 242.367188 35.773438 C 242.144531 35.015625 242.027344 34.183594 242.046875 33.269531 C 242.09375 30.46875 243.9375 25.695312 247.597656 26.492188 C 248.617188 26.71875 249.277344 27.632812 249.277344 28.675781 C 249.277344 29.933594 248.265625 30.949219 247.011719 30.949219 C 245.667969 30.949219 242.289062 30.179688 242.953125 34.738281 C 242.996094 35.027344 243.050781 35.289062 243.125 35.550781 C 242.882812 35.625 242.628906 35.703125 242.367188 35.773438 Z M 228.734375 21.167969 C 240.574219 17.378906 254.714844 15.519531 260.738281 25.910156 C 263.804688 31.203125 262.121094 37.859375 256.433594 40.53125 C 252.71875 42.289062 247.789062 41.878906 244.773438 39.386719 C 245.164062 39.238281 245.539062 39.101562 245.894531 38.957031 C 248.777344 40.636719 253.097656 40.570312 255.847656 39.285156 C 260.761719 36.972656 261.554688 30.648438 258.667969 26.097656 C 252.851562 16.917969 239.910156 18.617188 228.800781 22.257812 C 228.785156 21.886719 228.761719 21.519531 228.734375 21.167969 Z M 198.589844 36.710938 C 195.824219 38.3125 193.039062 39.90625 190.214844 41.453125 C 189.679688 41.1875 189.148438 40.917969 188.621094 40.636719 C 191.523438 39.117188 194.394531 37.511719 197.238281 35.890625 C 206.105469 30.816406 215.046875 26.109375 224.695312 22.558594 L 225.015625 22.4375 C 225.039062 22.820312 225.046875 23.199219 225.046875 23.585938 C 215.769531 27.066406 207.128906 31.785156 198.589844 36.710938 Z M 190.222656 25.84375 C 191.359375 29.390625 193.601562 32.703125 196.632812 35.339844 L 197.96875 34.570312 C 197.335938 34.011719 196.734375 33.398438 196.175781 32.742188 C 194.425781 30.699219 193.164062 28.332031 192.464844 25.84375 Z M 225.289062 27.757812 C 224.464844 30.25 222.882812 32.449219 220.28125 33.933594 C 216.332031 36.183594 216.269531 33.113281 213.332031 31.9375 C 211.949219 31.382812 210.171875 31.289062 208.875 32.136719 C 206.574219 33.640625 207.257812 36.363281 209.355469 37.640625 C 213.507812 40.160156 222.375 35.949219 225.433594 31.234375 C 226.148438 30.136719 226.6875 29 227.085938 27.820312 C 229 22.101562 227.050781 15 223.171875 10.585938 C 214.238281 0.40625 196.671875 1.738281 190.84375 14.199219 C 190.269531 15.421875 189.878906 16.667969 189.644531 17.921875 L 192.246094 17.921875 C 192.5 16.839844 192.878906 15.789062 193.398438 14.757812 C 198.828125 3.871094 215.199219 2.640625 222.539062 12.027344 C 225.667969 16.03125 226.925781 22.859375 225.289062 27.757812 Z M 232.253906 39.507812 C 223.207031 41.578125 214.6875 41.976562 207.0625 39.5 C 204.707031 38.734375 202.492188 37.765625 200.519531 36.492188 L 200.234375 36.65625 L 199.167969 37.273438 C 199.578125 37.542969 200 37.804688 200.4375 38.0625 C 211.027344 43.867188 222.164062 44.160156 233.605469 41.601562 C 240.023438 40.164062 246.25 37.925781 252.324219 35.433594 C 254.726562 34.445312 257.066406 33.421875 259.390625 32.375 C 259.390625 31.601562 259.304688 30.84375 259.167969 30.136719 C 256.417969 31.308594 253.640625 32.460938 250.902344 33.535156 C 244.816406 35.917969 238.640625 38.0625 232.253906 39.507812 Z M 354.902344 48.4375 C 361.664062 38.113281 355.988281 22.566406 349.429688 16.667969 C 339.617188 7.847656 323.707031 6.433594 308.902344 10.253906 C 296.652344 13.417969 283.554688 19.351562 270.507812 25.171875 C 268.074219 26.253906 265.558594 27.367188 263.003906 28.484375 C 263.148438 29.113281 263.265625 29.8125 263.328125 30.566406 C 266.0625 29.285156 268.8125 27.972656 271.695312 26.613281 C 282.703125 21.40625 293.738281 16.261719 304.613281 13.335938 C 318.734375 9.535156 336.460938 9.96875 347.183594 18.328125 C 355.796875 25.039062 359.597656 38.492188 354.902344 48.4375 Z M 187.6875 25.070312 L 192.488281 25.070312 C 194.25 25.070312 195.699219 23.636719 195.699219 21.886719 C 195.699219 20.132812 194.25 18.699219 192.488281 18.699219 L 182.886719 18.699219 C 181.125 18.699219 179.679688 20.132812 179.679688 21.886719 C 179.679688 23.636719 181.125 25.070312 182.886719 25.070312 Z M 186.425781 43.378906 C 168.597656 52.703125 149.007812 59.140625 124.078125 49.359375 C 102.386719 40.859375 37.433594 7.300781 26.066406 39.929688 C 22.34375 50.585938 33.09375 59.6875 41.445312 54.90625 C 47.808594 51.277344 45.636719 40.859375 38.128906 40.570312 C 31.171875 40.75 34.976562 45.449219 34.976562 46.382812 C 34.976562 47.566406 34.003906 48.523438 32.816406 48.523438 C 30.761719 48.523438 30.320312 46.242188 30.636719 44.636719 C 31.035156 42.679688 32.632812 41.21875 34.425781 40.464844 C 42.296875 37.183594 49.523438 46.265625 44.808594 53.464844 C 42.511719 56.964844 37.636719 58.4375 34.167969 57.46875 C 26.820312 55.414062 22.710938 47.269531 25.375 39.625 C 36.660156 7.246094 101.835938 37.628906 124.734375 46.605469 C 148.648438 55.984375 167.554688 50.980469 184.800781 42.496094 Z M 176.792969 36.710938 C 168.242188 31.785156 159.613281 27.066406 150.335938 23.585938 C 150.332031 23.199219 150.339844 22.820312 150.351562 22.4375 L 150.683594 22.558594 C 160.335938 26.109375 169.273438 30.816406 178.140625 35.890625 C 183.179688 38.769531 188.171875 41.421875 193.457031 43.871094 C 209.941406 51.492188 228.054688 55.472656 250.648438 46.605469 C 273.539062 37.628906 338.710938 7.246094 350.003906 39.625 C 352.664062 47.269531 348.550781 55.414062 341.214844 57.46875 C 337.742188 58.4375 332.863281 56.964844 330.566406 53.464844 C 325.851562 46.265625 333.082031 37.183594 340.945312 40.464844 C 342.746094 41.21875 344.339844 42.679688 344.730469 44.636719 C 345.0625 46.242188 344.609375 48.523438 342.558594 48.523438 C 341.367188 48.523438 340.40625 47.566406 340.40625 46.382812 C 340.40625 45.449219 344.203125 40.75 337.238281 40.570312 C 329.734375 40.859375 327.5625 51.277344 333.925781 54.90625 C 342.277344 59.6875 353.023438 50.585938 349.308594 39.929688 C 337.945312 7.300781 272.984375 40.859375 251.300781 49.359375 C 228.253906 58.390625 209.777344 53.585938 193.039062 45.453125 C 187.574219 42.796875 182.019531 39.726562 176.792969 36.710938 " fill-opacity="1" fill-rule="nonzero"/></svg>