<svg xmlns="http://www.w3.org/2000/svg" xmlns:xlink="http://www.w3.org/1999/xlink" width="500" zoomAndPan="magnify" viewBox="0 0 375 374.999991" height="500" preserveAspectRatio="xMidYMid meet" version="1.0"><defs><clipPath id="id1"><path d="M 315 38.4375 L 375 38.4375 L 375 96 L 315 96 Z M 315 38.4375 " clip-rule="nonzero"/></clipPath><clipPath id="id2"><path d="M 0 38.4375 L 60 38.4375 L 60 96 L 0 96 Z M 0 38.4375 " clip-rule="nonzero"/></clipPath><clipPath id="id3"><path d="M 183.96875 324.09375 L 190.667969 324.09375 L 190.667969 336.9375 L 183.96875 336.9375 Z M 183.96875 324.09375 " clip-rule="nonzero"/></clipPath><clipPath id="id4"><path d="M 358 38.4375 L 374 38.4375 L 374 54 L 358 54 Z M 358 38.4375 " clip-rule="nonzero"/></clipPath><clipPath id="id5"><path d="M 11 38.4375 L 27 38.4375 L 27 55 L 11 55 Z M 11 38.4375 " clip-rule="nonzero"/></clipPath></defs><path fill="rgb(81.568909%, 71.759033%, 56.079102%)" d="M 218.882812 133.742188 C 218.882812 151.234375 204.722656 165.410156 187.253906 165.410156 C 169.785156 165.410156 155.625 151.234375 155.625 133.742188 C 155.625 116.253906 169.785156 102.074219 187.253906 102.074219 C 204.722656 102.074219 218.882812 116.253906 218.882812 133.742188 " fill-opacity="1" fill-rule="nonzero"/><g clip-path="url(#id1)"><path fill="rgb(22.349548%, 15.689087%, 11.369324%)" d="M 356.210938 86.320312 C 338.742188 86.320312 324.585938 72.144531 324.585938 54.652344 C 324.585938 48.753906 326.199219 43.230469 329.003906 38.5 C 321.066406 44.253906 315.898438 53.605469 315.898438 64.171875 C 315.898438 81.660156 330.058594 95.839844 347.527344 95.839844 C 359.101562 95.839844 369.222656 89.613281 374.734375 80.324219 C 369.527344 84.097656 363.128906 86.320312 356.210938 86.320312 " fill-opacity="1" fill-rule="nonzero"/></g><path fill="rgb(67.83905%, 42.749023%, 32.159424%)" d="M 306.558594 126.683594 C 289.089844 126.683594 274.929688 112.507812 274.929688 95.015625 C 274.929688 88.558594 276.863281 82.550781 280.179688 77.542969 C 263.777344 78.71875 250.839844 92.410156 250.839844 109.128906 C 250.839844 126.621094 265 140.796875 282.46875 140.796875 C 293.484375 140.796875 303.183594 135.15625 308.847656 126.601562 C 308.089844 126.65625 307.328125 126.683594 306.558594 126.683594 " fill-opacity="1" fill-rule="nonzero"/><g clip-path="url(#id2)"><path fill="rgb(22.349548%, 15.689087%, 11.369324%)" d="M 18.789062 86.484375 C 36.257812 86.484375 50.417969 72.304688 50.417969 54.816406 C 50.417969 48.917969 48.800781 43.394531 45.996094 38.664062 C 53.933594 44.417969 59.101562 53.769531 59.101562 64.332031 C 59.101562 81.824219 44.941406 96 27.472656 96 C 15.898438 96 5.777344 89.777344 0.265625 80.488281 C 5.472656 84.257812 11.871094 86.484375 18.789062 86.484375 " fill-opacity="1" fill-rule="nonzero"/></g><path fill="rgb(67.83905%, 42.749023%, 32.159424%)" d="M 68.441406 126.851562 C 85.910156 126.851562 100.070312 112.671875 100.070312 95.179688 C 100.070312 88.722656 98.136719 82.714844 94.820312 77.707031 C 111.222656 78.882812 124.160156 92.574219 124.160156 109.292969 C 124.160156 126.785156 110 140.960938 92.53125 140.960938 C 81.515625 140.960938 71.816406 135.320312 66.152344 126.765625 C 66.910156 126.820312 67.671875 126.851562 68.441406 126.851562 " fill-opacity="1" fill-rule="nonzero"/><path fill="rgb(22.349548%, 15.689087%, 11.369324%)" d="M 23.578125 52.183594 C 23.332031 52.394531 22.964844 52.367188 22.75 52.121094 C 22.539062 51.875 22.566406 51.507812 22.8125 51.296875 C 23.058594 51.085938 23.425781 51.113281 23.636719 51.355469 C 23.847656 51.601562 23.820312 51.96875 23.578125 52.183594 " fill-opacity="1" fill-rule="nonzero"/><path fill="rgb(22.349548%, 15.689087%, 11.369324%)" d="M 28.335938 57.484375 C 28.097656 57.703125 27.726562 57.691406 27.507812 57.453125 C 27.289062 57.214844 27.304688 56.84375 27.542969 56.625 C 27.777344 56.40625 28.148438 56.421875 28.367188 56.65625 C 28.585938 56.894531 28.574219 57.265625 28.335938 57.484375 " fill-opacity="1" fill-rule="nonzero"/><path fill="rgb(22.349548%, 15.689087%, 11.369324%)" d="M 33.253906 62.640625 C 33.023438 62.863281 32.652344 62.863281 32.425781 62.628906 C 32.199219 62.398438 32.203125 62.027344 32.4375 61.800781 C 32.667969 61.574219 33.039062 61.578125 33.261719 61.8125 C 33.488281 62.039062 33.484375 62.410156 33.253906 62.640625 " fill-opacity="1" fill-rule="nonzero"/><path fill="rgb(22.349548%, 15.689087%, 11.369324%)" d="M 38.3125 67.65625 C 38.089844 67.886719 37.71875 67.894531 37.484375 67.671875 C 37.253906 67.441406 37.246094 67.070312 37.472656 66.839844 C 37.699219 66.605469 38.070312 66.601562 38.300781 66.828125 C 38.53125 67.050781 38.539062 67.421875 38.3125 67.65625 " fill-opacity="1" fill-rule="nonzero"/><path fill="rgb(22.349548%, 15.689087%, 11.369324%)" d="M 43.503906 72.535156 C 43.285156 72.773438 42.917969 72.789062 42.679688 72.570312 C 42.4375 72.351562 42.421875 71.980469 42.644531 71.742188 C 42.863281 71.503906 43.230469 71.488281 43.46875 71.707031 C 43.707031 71.921875 43.722656 72.296875 43.503906 72.535156 " fill-opacity="1" fill-rule="nonzero"/><path fill="rgb(22.349548%, 15.689087%, 11.369324%)" d="M 59.816406 86.332031 C 59.621094 86.585938 59.25 86.632812 58.996094 86.429688 C 58.742188 86.230469 58.695312 85.863281 58.898438 85.605469 C 59.097656 85.351562 59.464844 85.308594 59.71875 85.507812 C 59.96875 85.710938 60.015625 86.074219 59.816406 86.332031 " fill-opacity="1" fill-rule="nonzero"/><path fill="rgb(22.349548%, 15.689087%, 11.369324%)" d="M 65.492188 90.636719 C 65.300781 90.898438 64.933594 90.953125 64.671875 90.757812 C 64.414062 90.5625 64.359375 90.195312 64.550781 89.9375 C 64.746094 89.675781 65.113281 89.621094 65.371094 89.816406 C 65.628906 90.007812 65.683594 90.375 65.492188 90.636719 " fill-opacity="1" fill-rule="nonzero"/><path fill="rgb(22.349548%, 15.689087%, 11.369324%)" d="M 71.28125 94.785156 C 71.097656 95.050781 70.730469 95.113281 70.464844 94.929688 C 70.199219 94.742188 70.136719 94.378906 70.320312 94.113281 C 70.507812 93.847656 70.871094 93.785156 71.136719 93.96875 C 71.402344 94.152344 71.464844 94.519531 71.28125 94.785156 " fill-opacity="1" fill-rule="nonzero"/><path fill="rgb(22.349548%, 15.689087%, 11.369324%)" d="M 77.183594 98.773438 C 77.007812 99.042969 76.640625 99.121094 76.371094 98.941406 C 76.097656 98.765625 76.027344 98.398438 76.203125 98.128906 C 76.382812 97.859375 76.742188 97.789062 77.015625 97.964844 C 77.285156 98.140625 77.359375 98.503906 77.183594 98.773438 " fill-opacity="1" fill-rule="nonzero"/><path fill="rgb(22.349548%, 15.689087%, 11.369324%)" d="M 83.195312 102.59375 C 83.023438 102.867188 82.664062 102.953125 82.390625 102.78125 C 82.113281 102.613281 82.027344 102.25 82.199219 101.976562 C 82.371094 101.699219 82.730469 101.613281 83.003906 101.785156 C 83.277344 101.957031 83.363281 102.316406 83.195312 102.59375 " fill-opacity="1" fill-rule="nonzero"/><path fill="rgb(22.349548%, 15.689087%, 11.369324%)" d="M 89.316406 106.234375 C 89.15625 106.511719 88.796875 106.609375 88.515625 106.449219 C 88.230469 106.289062 88.136719 105.929688 88.300781 105.648438 C 88.460938 105.371094 88.820312 105.273438 89.101562 105.433594 C 89.378906 105.59375 89.476562 105.953125 89.316406 106.234375 " fill-opacity="1" fill-rule="nonzero"/><path fill="rgb(22.349548%, 15.689087%, 11.369324%)" d="M 95.542969 109.6875 C 95.390625 109.972656 95.035156 110.082031 94.75 109.925781 C 94.464844 109.773438 94.359375 109.417969 94.511719 109.132812 C 94.667969 108.847656 95.019531 108.742188 95.304688 108.894531 C 95.589844 109.046875 95.695312 109.402344 95.542969 109.6875 " fill-opacity="1" fill-rule="nonzero"/><path fill="rgb(22.349548%, 15.689087%, 11.369324%)" d="M 128.160156 123.859375 C 128.058594 124.167969 127.726562 124.332031 127.417969 124.230469 C 127.109375 124.125 126.945312 123.792969 127.050781 123.488281 C 127.15625 123.183594 127.488281 123.015625 127.796875 123.121094 C 128.101562 123.222656 128.265625 123.554688 128.160156 123.859375 " fill-opacity="1" fill-rule="nonzero"/><path fill="rgb(22.349548%, 15.689087%, 11.369324%)" d="M 134.949219 126.011719 C 134.855469 126.324219 134.53125 126.5 134.21875 126.40625 C 133.910156 126.3125 133.734375 125.984375 133.828125 125.675781 C 133.921875 125.367188 134.246094 125.191406 134.558594 125.28125 C 134.867188 125.375 135.039062 125.703125 134.949219 126.011719 " fill-opacity="1" fill-rule="nonzero"/><path fill="rgb(22.349548%, 15.689087%, 11.369324%)" d="M 141.808594 127.917969 C 141.730469 128.230469 141.410156 128.417969 141.097656 128.335938 C 140.78125 128.253906 140.59375 127.933594 140.675781 127.621094 C 140.761719 127.304688 141.078125 127.117188 141.390625 127.203125 C 141.703125 127.285156 141.890625 127.605469 141.808594 127.917969 " fill-opacity="1" fill-rule="nonzero"/><path fill="rgb(22.349548%, 15.689087%, 11.369324%)" d="M 148.734375 129.570312 C 148.667969 129.882812 148.355469 130.082031 148.039062 130.011719 C 147.722656 129.9375 147.523438 129.625 147.59375 129.308594 C 147.664062 128.992188 147.976562 128.792969 148.289062 128.867188 C 148.605469 128.9375 148.804688 129.253906 148.734375 129.570312 " fill-opacity="1" fill-rule="nonzero"/><path fill="rgb(22.349548%, 15.689087%, 11.369324%)" d="M 226.453125 129.546875 C 226.519531 129.867188 226.316406 130.175781 226 130.242188 C 225.683594 130.308594 225.371094 130.105469 225.304688 129.789062 C 225.242188 129.472656 225.441406 129.164062 225.757812 129.097656 C 226.074219 129.03125 226.382812 129.234375 226.453125 129.546875 " fill-opacity="1" fill-rule="nonzero"/><path fill="rgb(22.349548%, 15.689087%, 11.369324%)" d="M 233.382812 127.914062 C 233.460938 128.230469 233.269531 128.546875 232.957031 128.628906 C 232.640625 128.707031 232.324219 128.519531 232.246094 128.203125 C 232.171875 127.890625 232.359375 127.570312 232.671875 127.492188 C 232.984375 127.414062 233.300781 127.601562 233.382812 127.914062 " fill-opacity="1" fill-rule="nonzero"/><path fill="rgb(22.349548%, 15.689087%, 11.369324%)" d="M 240.25 126.039062 C 240.339844 126.351562 240.160156 126.675781 239.851562 126.769531 C 239.539062 126.863281 239.21875 126.6875 239.128906 126.375 C 239.039062 126.0625 239.21875 125.738281 239.527344 125.644531 C 239.835938 125.550781 240.160156 125.730469 240.25 126.039062 " fill-opacity="1" fill-rule="nonzero"/><path fill="rgb(22.349548%, 15.689087%, 11.369324%)" d="M 247.050781 123.929688 C 247.152344 124.238281 246.984375 124.566406 246.675781 124.667969 C 246.363281 124.765625 246.035156 124.59375 245.933594 124.285156 C 245.835938 123.980469 246.003906 123.648438 246.3125 123.550781 C 246.617188 123.453125 246.949219 123.621094 247.050781 123.929688 " fill-opacity="1" fill-rule="nonzero"/><path fill="rgb(22.349548%, 15.689087%, 11.369324%)" d="M 286.109375 106.757812 C 286.265625 107.039062 286.160156 107.394531 285.875 107.554688 C 285.59375 107.710938 285.238281 107.605469 285.082031 107.320312 C 284.929688 107.035156 285.03125 106.679688 285.316406 106.523438 C 285.597656 106.367188 285.953125 106.472656 286.109375 106.757812 " fill-opacity="1" fill-rule="nonzero"/><path fill="rgb(22.349548%, 15.689087%, 11.369324%)" d="M 292.308594 103.25 C 292.472656 103.527344 292.375 103.886719 292.09375 104.046875 C 291.8125 104.210938 291.453125 104.113281 291.292969 103.835938 C 291.132812 103.550781 291.226562 103.195312 291.507812 103.035156 C 291.785156 102.875 292.144531 102.972656 292.308594 103.25 " fill-opacity="1" fill-rule="nonzero"/><path fill="rgb(22.349548%, 15.689087%, 11.369324%)" d="M 298.410156 99.574219 C 298.578125 99.847656 298.492188 100.210938 298.21875 100.382812 C 297.945312 100.554688 297.582031 100.46875 297.414062 100.195312 C 297.246094 99.917969 297.332031 99.554688 297.605469 99.382812 C 297.878906 99.214844 298.238281 99.296875 298.410156 99.574219 " fill-opacity="1" fill-rule="nonzero"/><path fill="rgb(22.349548%, 15.689087%, 11.369324%)" d="M 304.417969 95.75 C 304.59375 96.023438 304.515625 96.382812 304.246094 96.5625 C 303.972656 96.738281 303.609375 96.660156 303.4375 96.386719 C 303.261719 96.117188 303.335938 95.753906 303.609375 95.578125 C 303.878906 95.402344 304.242188 95.480469 304.417969 95.75 " fill-opacity="1" fill-rule="nonzero"/><path fill="rgb(22.349548%, 15.689087%, 11.369324%)" d="M 310.339844 91.792969 C 310.519531 92.058594 310.457031 92.425781 310.1875 92.605469 C 309.917969 92.785156 309.550781 92.71875 309.371094 92.449219 C 309.1875 92.183594 309.257812 91.816406 309.523438 91.640625 C 309.792969 91.460938 310.15625 91.523438 310.339844 91.792969 " fill-opacity="1" fill-rule="nonzero"/><path fill="rgb(22.349548%, 15.689087%, 11.369324%)" d="M 316.15625 87.683594 C 316.34375 87.949219 316.285156 88.3125 316.023438 88.503906 C 315.757812 88.695312 315.394531 88.636719 315.207031 88.371094 C 315.019531 88.109375 315.078125 87.742188 315.339844 87.554688 C 315.601562 87.363281 315.964844 87.421875 316.15625 87.683594 " fill-opacity="1" fill-rule="nonzero"/><path fill="rgb(22.349548%, 15.689087%, 11.369324%)" d="M 321.890625 83.457031 C 322.085938 83.71875 322.03125 84.085938 321.773438 84.277344 C 321.515625 84.472656 321.144531 84.417969 320.953125 84.160156 C 320.761719 83.902344 320.8125 83.535156 321.070312 83.339844 C 321.328125 83.148438 321.695312 83.199219 321.890625 83.457031 " fill-opacity="1" fill-rule="nonzero"/><path fill="rgb(22.349548%, 15.689087%, 11.369324%)" d="M 338.554688 70.085938 C 338.765625 70.332031 338.734375 70.703125 338.488281 70.910156 C 338.242188 71.121094 337.875 71.09375 337.664062 70.84375 C 337.457031 70.597656 337.484375 70.226562 337.730469 70.015625 C 337.976562 69.808594 338.34375 69.839844 338.554688 70.085938 " fill-opacity="1" fill-rule="nonzero"/><path fill="rgb(22.349548%, 15.689087%, 11.369324%)" d="M 343.9375 65.417969 C 344.152344 65.664062 344.125 66.03125 343.882812 66.246094 C 343.640625 66.460938 343.273438 66.4375 343.058594 66.191406 C 342.84375 65.949219 342.867188 65.578125 343.113281 65.367188 C 343.355469 65.152344 343.722656 65.175781 343.9375 65.417969 " fill-opacity="1" fill-rule="nonzero"/><path fill="rgb(22.349548%, 15.689087%, 11.369324%)" d="M 349.238281 60.660156 C 349.457031 60.898438 349.4375 61.269531 349.199219 61.488281 C 348.957031 61.703125 348.589844 61.6875 348.371094 61.445312 C 348.15625 61.207031 348.171875 60.835938 348.410156 60.621094 C 348.648438 60.402344 349.019531 60.421875 349.238281 60.660156 " fill-opacity="1" fill-rule="nonzero"/><path fill="rgb(22.349548%, 15.689087%, 11.369324%)" d="M 354.460938 55.8125 C 354.679688 56.050781 354.667969 56.417969 354.429688 56.640625 C 354.195312 56.863281 353.824219 56.847656 353.601562 56.613281 C 353.382812 56.378906 353.394531 56.007812 353.632812 55.785156 C 353.867188 55.566406 354.238281 55.578125 354.460938 55.8125 " fill-opacity="1" fill-rule="nonzero"/><path fill="rgb(22.349548%, 15.689087%, 11.369324%)" d="M 359.597656 50.878906 C 359.820312 51.109375 359.820312 51.484375 359.585938 51.710938 C 359.351562 51.933594 358.980469 51.925781 358.757812 51.695312 C 358.53125 51.460938 358.539062 51.089844 358.769531 50.867188 C 359 50.644531 359.371094 50.644531 359.597656 50.878906 " fill-opacity="1" fill-rule="nonzero"/><path fill="rgb(22.349548%, 15.689087%, 11.369324%)" d="M 92.53125 252.5 C 92.855469 252.5 93.117188 252.765625 93.117188 253.089844 C 93.117188 253.410156 92.855469 253.675781 92.53125 253.675781 C 92.210938 253.675781 91.949219 253.410156 91.949219 253.089844 C 91.949219 252.765625 92.210938 252.5 92.53125 252.5 " fill-opacity="1" fill-rule="nonzero"/><path fill="rgb(22.349548%, 15.689087%, 11.369324%)" d="M 92.53125 245.410156 C 92.855469 245.410156 93.117188 245.671875 93.117188 245.996094 C 93.117188 246.320312 92.855469 246.582031 92.53125 246.582031 C 92.210938 246.582031 91.949219 246.320312 91.949219 245.996094 C 91.949219 245.671875 92.210938 245.410156 92.53125 245.410156 " fill-opacity="1" fill-rule="nonzero"/><path fill="rgb(22.349548%, 15.689087%, 11.369324%)" d="M 92.53125 238.320312 C 92.855469 238.320312 93.117188 238.582031 93.117188 238.902344 C 93.117188 239.230469 92.855469 239.492188 92.53125 239.492188 C 92.210938 239.492188 91.949219 239.230469 91.949219 238.902344 C 91.949219 238.582031 92.210938 238.320312 92.53125 238.320312 " fill-opacity="1" fill-rule="nonzero"/><path fill="rgb(22.349548%, 15.689087%, 11.369324%)" d="M 92.53125 231.226562 C 92.855469 231.226562 93.117188 231.488281 93.117188 231.8125 C 93.117188 232.136719 92.855469 232.398438 92.53125 232.398438 C 92.210938 232.398438 91.949219 232.136719 91.949219 231.8125 C 91.949219 231.488281 92.210938 231.226562 92.53125 231.226562 " fill-opacity="1" fill-rule="nonzero"/><path fill="rgb(22.349548%, 15.689087%, 11.369324%)" d="M 92.53125 224.132812 C 92.855469 224.132812 93.117188 224.398438 93.117188 224.71875 C 93.117188 225.042969 92.855469 225.308594 92.53125 225.308594 C 92.210938 225.308594 91.949219 225.042969 91.949219 224.71875 C 91.949219 224.398438 92.210938 224.132812 92.53125 224.132812 " fill-opacity="1" fill-rule="nonzero"/><path fill="rgb(22.349548%, 15.689087%, 11.369324%)" d="M 92.53125 217.042969 C 92.855469 217.042969 93.117188 217.304688 93.117188 217.628906 C 93.117188 217.953125 92.855469 218.214844 92.53125 218.214844 C 92.210938 218.214844 91.949219 217.953125 91.949219 217.628906 C 91.949219 217.304688 92.210938 217.042969 92.53125 217.042969 " fill-opacity="1" fill-rule="nonzero"/><path fill="rgb(22.349548%, 15.689087%, 11.369324%)" d="M 92.53125 209.949219 C 92.855469 209.949219 93.117188 210.214844 93.117188 210.539062 C 93.117188 210.859375 92.855469 211.121094 92.53125 211.121094 C 92.210938 211.121094 91.949219 210.859375 91.949219 210.539062 C 91.949219 210.214844 92.210938 209.949219 92.53125 209.949219 " fill-opacity="1" fill-rule="nonzero"/><path fill="rgb(22.349548%, 15.689087%, 11.369324%)" d="M 92.53125 202.859375 C 92.855469 202.859375 93.117188 203.121094 93.117188 203.445312 C 93.117188 203.769531 92.855469 204.03125 92.53125 204.03125 C 92.210938 204.03125 91.949219 203.769531 91.949219 203.445312 C 91.949219 203.121094 92.210938 202.859375 92.53125 202.859375 " fill-opacity="1" fill-rule="nonzero"/><path fill="rgb(22.349548%, 15.689087%, 11.369324%)" d="M 92.53125 195.765625 C 92.855469 195.765625 93.117188 196.03125 93.117188 196.351562 C 93.117188 196.675781 92.855469 196.9375 92.53125 196.9375 C 92.210938 196.9375 91.949219 196.675781 91.949219 196.351562 C 91.949219 196.03125 92.210938 195.765625 92.53125 195.765625 " fill-opacity="1" fill-rule="nonzero"/><path fill="rgb(22.349548%, 15.689087%, 11.369324%)" d="M 92.53125 188.675781 C 92.855469 188.675781 93.117188 188.9375 93.117188 189.261719 C 93.117188 189.585938 92.855469 189.847656 92.53125 189.847656 C 92.210938 189.847656 91.949219 189.585938 91.949219 189.261719 C 91.949219 188.9375 92.210938 188.675781 92.53125 188.675781 " fill-opacity="1" fill-rule="nonzero"/><path fill="rgb(22.349548%, 15.689087%, 11.369324%)" d="M 92.53125 181.582031 C 92.855469 181.582031 93.117188 181.847656 93.117188 182.167969 C 93.117188 182.492188 92.855469 182.757812 92.53125 182.757812 C 92.210938 182.757812 91.949219 182.492188 91.949219 182.167969 C 91.949219 181.847656 92.210938 181.582031 92.53125 181.582031 " fill-opacity="1" fill-rule="nonzero"/><path fill="rgb(22.349548%, 15.689087%, 11.369324%)" d="M 92.53125 174.492188 C 92.855469 174.492188 93.117188 174.753906 93.117188 175.078125 C 93.117188 175.402344 92.855469 175.664062 92.53125 175.664062 C 92.210938 175.664062 91.949219 175.402344 91.949219 175.078125 C 91.949219 174.753906 92.210938 174.492188 92.53125 174.492188 " fill-opacity="1" fill-rule="nonzero"/><path fill="rgb(22.349548%, 15.689087%, 11.369324%)" d="M 92.53125 167.398438 C 92.855469 167.398438 93.117188 167.664062 93.117188 167.984375 C 93.117188 168.308594 92.855469 168.570312 92.53125 168.570312 C 92.210938 168.570312 91.949219 168.308594 91.949219 167.984375 C 91.949219 167.664062 92.210938 167.398438 92.53125 167.398438 " fill-opacity="1" fill-rule="nonzero"/><path fill="rgb(22.349548%, 15.689087%, 11.369324%)" d="M 92.53125 160.308594 C 92.855469 160.308594 93.117188 160.570312 93.117188 160.894531 C 93.117188 161.21875 92.855469 161.480469 92.53125 161.480469 C 92.210938 161.480469 91.949219 161.21875 91.949219 160.894531 C 91.949219 160.570312 92.210938 160.308594 92.53125 160.308594 " fill-opacity="1" fill-rule="nonzero"/><path fill="rgb(22.349548%, 15.689087%, 11.369324%)" d="M 92.53125 153.214844 C 92.855469 153.214844 93.117188 153.476562 93.117188 153.800781 C 93.117188 154.125 92.855469 154.386719 92.53125 154.386719 C 92.210938 154.386719 91.949219 154.125 91.949219 153.800781 C 91.949219 153.476562 92.210938 153.214844 92.53125 153.214844 " fill-opacity="1" fill-rule="nonzero"/><path fill="rgb(22.349548%, 15.689087%, 11.369324%)" d="M 93.1875 145.175781 C 93.511719 145.175781 93.773438 145.4375 93.773438 145.761719 C 93.773438 146.085938 93.511719 146.347656 93.1875 146.347656 C 92.863281 146.347656 92.601562 146.085938 92.601562 145.761719 C 92.601562 145.4375 92.863281 145.175781 93.1875 145.175781 " fill-opacity="1" fill-rule="nonzero"/><path fill="rgb(22.349548%, 15.689087%, 11.369324%)" d="M 95.878906 153.945312 C 95.570312 154.039062 95.242188 153.863281 95.148438 153.550781 C 95.054688 153.242188 95.230469 152.914062 95.539062 152.824219 C 95.851562 152.730469 96.175781 152.90625 96.269531 153.214844 C 96.363281 153.523438 96.1875 153.851562 95.878906 153.945312 " fill-opacity="1" fill-rule="nonzero"/><path fill="rgb(22.349548%, 15.689087%, 11.369324%)" d="M 98.070312 160.675781 C 97.765625 160.78125 97.429688 160.621094 97.324219 160.3125 C 97.21875 160.007812 97.382812 159.671875 97.6875 159.566406 C 97.992188 159.464844 98.324219 159.625 98.433594 159.929688 C 98.539062 160.234375 98.375 160.566406 98.070312 160.675781 " fill-opacity="1" fill-rule="nonzero"/><path fill="rgb(22.349548%, 15.689087%, 11.369324%)" d="M 100.523438 167.3125 C 100.222656 167.433594 99.882812 167.28125 99.765625 166.980469 C 99.648438 166.675781 99.796875 166.335938 100.101562 166.21875 C 100.402344 166.105469 100.742188 166.253906 100.859375 166.554688 C 100.972656 166.855469 100.824219 167.195312 100.523438 167.3125 " fill-opacity="1" fill-rule="nonzero"/><path fill="rgb(22.349548%, 15.689087%, 11.369324%)" d="M 103.242188 173.847656 C 102.945312 173.980469 102.601562 173.84375 102.472656 173.546875 C 102.34375 173.246094 102.480469 172.902344 102.777344 172.773438 C 103.070312 172.644531 103.417969 172.78125 103.542969 173.078125 C 103.671875 173.371094 103.535156 173.71875 103.242188 173.847656 " fill-opacity="1" fill-rule="nonzero"/><path fill="rgb(22.349548%, 15.689087%, 11.369324%)" d="M 106.234375 180.261719 C 105.945312 180.40625 105.59375 180.285156 105.453125 179.992188 C 105.308594 179.699219 105.429688 179.347656 105.722656 179.207031 C 106.011719 179.066406 106.363281 179.1875 106.503906 179.476562 C 106.644531 179.765625 106.523438 180.117188 106.234375 180.261719 " fill-opacity="1" fill-rule="nonzero"/><path fill="rgb(22.349548%, 15.689087%, 11.369324%)" d="M 109.515625 186.53125 C 109.230469 186.691406 108.875 186.585938 108.71875 186.300781 C 108.5625 186.015625 108.664062 185.660156 108.949219 185.503906 C 109.234375 185.351562 109.589844 185.453125 109.746094 185.738281 C 109.898438 186.019531 109.796875 186.375 109.515625 186.53125 " fill-opacity="1" fill-rule="nonzero"/><path fill="rgb(22.349548%, 15.689087%, 11.369324%)" d="M 113.09375 192.636719 C 112.820312 192.808594 112.457031 192.722656 112.285156 192.445312 C 112.109375 192.171875 112.195312 191.808594 112.472656 191.640625 C 112.75 191.472656 113.109375 191.558594 113.28125 191.832031 C 113.453125 192.105469 113.367188 192.464844 113.09375 192.636719 " fill-opacity="1" fill-rule="nonzero"/><path fill="rgb(22.349548%, 15.689087%, 11.369324%)" d="M 116.984375 198.546875 C 116.71875 198.734375 116.355469 198.667969 116.171875 198.394531 C 115.988281 198.128906 116.054688 197.761719 116.320312 197.578125 C 116.589844 197.394531 116.953125 197.460938 117.132812 197.726562 C 117.316406 197.992188 117.246094 198.359375 116.984375 198.546875 " fill-opacity="1" fill-rule="nonzero"/><path fill="rgb(22.349548%, 15.689087%, 11.369324%)" d="M 121.222656 204.210938 C 120.96875 204.414062 120.601562 204.371094 120.398438 204.113281 C 120.195312 203.859375 120.238281 203.492188 120.496094 203.292969 C 120.75 203.09375 121.117188 203.136719 121.316406 203.390625 C 121.515625 203.640625 121.472656 204.007812 121.222656 204.210938 " fill-opacity="1" fill-rule="nonzero"/><path fill="rgb(22.349548%, 15.689087%, 11.369324%)" d="M 125.800781 209.601562 C 125.5625 209.820312 125.1875 209.804688 124.972656 209.5625 C 124.757812 209.316406 124.777344 208.945312 125.019531 208.730469 C 125.261719 208.515625 125.628906 208.535156 125.839844 208.777344 C 126.054688 209.015625 126.042969 209.382812 125.800781 209.601562 " fill-opacity="1" fill-rule="nonzero"/><path fill="rgb(22.349548%, 15.689087%, 11.369324%)" d="M 130.75 214.652344 C 130.527344 214.890625 130.160156 214.898438 129.925781 214.671875 C 129.6875 214.445312 129.679688 214.074219 129.90625 213.84375 C 130.132812 213.613281 130.503906 213.601562 130.734375 213.824219 C 130.964844 214.046875 130.972656 214.417969 130.75 214.652344 " fill-opacity="1" fill-rule="nonzero"/><path fill="rgb(22.349548%, 15.689087%, 11.369324%)" d="M 136.066406 219.316406 C 135.863281 219.570312 135.492188 219.613281 135.238281 219.40625 C 134.988281 219.199219 134.953125 218.824219 135.160156 218.574219 C 135.367188 218.328125 135.734375 218.292969 135.976562 218.5 C 136.230469 218.703125 136.269531 219.066406 136.066406 219.316406 " fill-opacity="1" fill-rule="nonzero"/><path fill="rgb(22.349548%, 15.689087%, 11.369324%)" d="M 141.75 223.523438 C 141.570312 223.792969 141.207031 223.859375 140.9375 223.675781 C 140.667969 223.492188 140.597656 223.128906 140.785156 222.863281 C 140.96875 222.597656 141.335938 222.527344 141.597656 222.710938 C 141.863281 222.890625 141.929688 223.253906 141.75 223.523438 " fill-opacity="1" fill-rule="nonzero"/><path fill="rgb(22.349548%, 15.689087%, 11.369324%)" d="M 147.777344 227.21875 C 147.625 227.5 147.261719 227.613281 146.980469 227.449219 C 146.695312 227.28125 146.601562 226.921875 146.757812 226.640625 C 146.917969 226.359375 147.273438 226.261719 147.550781 226.425781 C 147.828125 226.589844 147.933594 226.933594 147.777344 227.21875 " fill-opacity="1" fill-rule="nonzero"/><path fill="rgb(22.349548%, 15.689087%, 11.369324%)" d="M 154.125 230.328125 C 154 230.625 153.652344 230.761719 153.351562 230.628906 C 153.054688 230.5 152.917969 230.15625 153.050781 229.863281 C 153.1875 229.566406 153.535156 229.429688 153.828125 229.558594 C 154.121094 229.6875 154.257812 230.03125 154.125 230.328125 " fill-opacity="1" fill-rule="nonzero"/><path fill="rgb(22.349548%, 15.689087%, 11.369324%)" d="M 160.738281 232.832031 C 160.636719 233.140625 160.304688 233.304688 160 233.199219 C 159.6875 233.09375 159.523438 232.761719 159.628906 232.453125 C 159.734375 232.148438 160.0625 231.980469 160.367188 232.085938 C 160.671875 232.1875 160.835938 232.523438 160.738281 232.832031 " fill-opacity="1" fill-rule="nonzero"/><path fill="rgb(22.349548%, 15.689087%, 11.369324%)" d="M 167.558594 234.6875 C 167.488281 235 167.167969 235.214844 166.855469 235.128906 C 166.539062 235.050781 166.339844 234.734375 166.417969 234.417969 C 166.492188 234.105469 166.804688 233.910156 167.117188 233.988281 C 167.425781 234.070312 167.625 234.367188 167.558594 234.6875 " fill-opacity="1" fill-rule="nonzero"/><path fill="rgb(22.349548%, 15.689087%, 11.369324%)" d="M 174.523438 235.886719 C 174.480469 236.207031 174.1875 236.4375 173.863281 236.402344 C 173.535156 236.367188 173.3125 236.0625 173.359375 235.742188 C 173.40625 235.421875 173.699219 235.203125 174.019531 235.238281 C 174.335938 235.277344 174.5625 235.566406 174.523438 235.886719 " fill-opacity="1" fill-rule="nonzero"/><path fill="rgb(22.349548%, 15.689087%, 11.369324%)" d="M 181.566406 236.464844 C 181.554688 236.789062 181.277344 237.042969 180.953125 237.03125 C 180.625 237.019531 180.378906 236.746094 180.394531 236.425781 C 180.414062 236.101562 180.6875 235.847656 181.007812 235.859375 C 181.328125 235.871094 181.578125 236.140625 181.566406 236.464844 " fill-opacity="1" fill-rule="nonzero"/><path fill="rgb(22.349548%, 15.689087%, 11.369324%)" d="M 195.675781 235.890625 C 195.714844 236.210938 195.484375 236.503906 195.164062 236.542969 C 194.839844 236.582031 194.550781 236.355469 194.515625 236.03125 C 194.484375 235.710938 194.714844 235.417969 195.03125 235.378906 C 195.351562 235.339844 195.636719 235.570312 195.675781 235.890625 " fill-opacity="1" fill-rule="nonzero"/><path fill="rgb(22.349548%, 15.689087%, 11.369324%)" d="M 202.65625 234.765625 C 202.722656 235.082031 202.515625 235.390625 202.195312 235.457031 C 201.875 235.519531 201.566406 235.316406 201.507812 234.996094 C 201.449219 234.679688 201.65625 234.371094 201.96875 234.304688 C 202.285156 234.242188 202.589844 234.445312 202.65625 234.765625 " fill-opacity="1" fill-rule="nonzero"/><path fill="rgb(22.349548%, 15.689087%, 11.369324%)" d="M 209.515625 233.066406 C 209.605469 233.378906 209.425781 233.703125 209.113281 233.792969 C 208.800781 233.878906 208.476562 233.699219 208.390625 233.390625 C 208.304688 233.078125 208.484375 232.753906 208.792969 232.664062 C 209.101562 232.578125 209.425781 232.757812 209.515625 233.066406 " fill-opacity="1" fill-rule="nonzero"/><path fill="rgb(22.349548%, 15.689087%, 11.369324%)" d="M 216.210938 230.800781 C 216.332031 231.101562 216.175781 231.4375 215.871094 231.546875 C 215.566406 231.664062 215.226562 231.507812 215.113281 231.207031 C 215 230.902344 215.152344 230.566406 215.453125 230.453125 C 215.753906 230.34375 216.097656 230.496094 216.210938 230.800781 " fill-opacity="1" fill-rule="nonzero"/><path fill="rgb(22.349548%, 15.689087%, 11.369324%)" d="M 222.683594 227.953125 C 222.824219 228.242188 222.707031 228.597656 222.414062 228.742188 C 222.121094 228.890625 221.765625 228.753906 221.628906 228.464844 C 221.488281 228.167969 221.621094 227.832031 221.90625 227.683594 C 222.191406 227.542969 222.539062 227.660156 222.683594 227.953125 " fill-opacity="1" fill-rule="nonzero"/><path fill="rgb(22.349548%, 15.689087%, 11.369324%)" d="M 228.894531 224.578125 C 229.058594 224.855469 228.96875 225.214844 228.6875 225.382812 C 228.40625 225.546875 228.046875 225.453125 227.886719 225.175781 C 227.726562 224.894531 227.816406 224.535156 228.09375 224.371094 C 228.371094 224.207031 228.726562 224.300781 228.894531 224.578125 " fill-opacity="1" fill-rule="nonzero"/><path fill="rgb(22.349548%, 15.689087%, 11.369324%)" d="M 234.820312 220.722656 C 235.007812 220.988281 234.941406 221.351562 234.671875 221.535156 C 234.402344 221.71875 234.039062 221.652344 233.855469 221.386719 C 233.671875 221.117188 233.738281 220.753906 234.003906 220.574219 C 234.269531 220.394531 234.632812 220.460938 234.820312 220.722656 " fill-opacity="1" fill-rule="nonzero"/><path fill="rgb(22.349548%, 15.689087%, 11.369324%)" d="M 240.421875 216.40625 C 240.628906 216.652344 240.59375 217.023438 240.34375 217.234375 C 240.09375 217.441406 239.726562 217.40625 239.523438 217.152344 C 239.320312 216.902344 239.355469 216.53125 239.601562 216.324219 C 239.847656 216.121094 240.214844 216.15625 240.421875 216.40625 " fill-opacity="1" fill-rule="nonzero"/><path fill="rgb(22.349548%, 15.689087%, 11.369324%)" d="M 245.707031 211.707031 C 245.929688 211.941406 245.917969 212.308594 245.679688 212.53125 C 245.441406 212.753906 245.070312 212.742188 244.851562 212.503906 C 244.632812 212.269531 244.644531 211.898438 244.875 211.679688 C 245.113281 211.457031 245.484375 211.472656 245.707031 211.707031 " fill-opacity="1" fill-rule="nonzero"/><path fill="rgb(22.349548%, 15.689087%, 11.369324%)" d="M 250.65625 206.652344 C 250.894531 206.871094 250.910156 207.242188 250.691406 207.484375 C 250.46875 207.722656 250.101562 207.738281 249.863281 207.515625 C 249.632812 207.292969 249.617188 206.921875 249.832031 206.683594 C 250.050781 206.445312 250.417969 206.433594 250.65625 206.652344 " fill-opacity="1" fill-rule="nonzero"/><path fill="rgb(22.349548%, 15.689087%, 11.369324%)" d="M 255.289062 201.304688 C 255.539062 201.507812 255.574219 201.878906 255.367188 202.128906 C 255.160156 202.378906 254.789062 202.414062 254.539062 202.207031 C 254.292969 202 254.257812 201.632812 254.464844 201.382812 C 254.667969 201.136719 255.039062 201.101562 255.289062 201.304688 " fill-opacity="1" fill-rule="nonzero"/><path fill="rgb(22.349548%, 15.689087%, 11.369324%)" d="M 259.597656 195.695312 C 259.859375 195.882812 259.917969 196.25 259.726562 196.515625 C 259.535156 196.777344 259.167969 196.835938 258.910156 196.640625 C 258.652344 196.449219 258.59375 196.082031 258.78125 195.820312 C 258.972656 195.5625 259.335938 195.503906 259.597656 195.695312 " fill-opacity="1" fill-rule="nonzero"/><path fill="rgb(22.349548%, 15.689087%, 11.369324%)" d="M 263.609375 189.867188 C 263.878906 190.042969 263.960938 190.410156 263.777344 190.679688 C 263.597656 190.949219 263.230469 191.023438 262.964844 190.84375 C 262.695312 190.664062 262.621094 190.300781 262.800781 190.035156 C 262.980469 189.765625 263.335938 189.6875 263.609375 189.867188 " fill-opacity="1" fill-rule="nonzero"/><path fill="rgb(22.349548%, 15.689087%, 11.369324%)" d="M 267.324219 183.84375 C 267.605469 184.007812 267.695312 184.367188 267.53125 184.644531 C 267.367188 184.925781 267.007812 185.015625 266.730469 184.851562 C 266.449219 184.6875 266.359375 184.328125 266.523438 184.046875 C 266.6875 183.773438 267.046875 183.679688 267.324219 183.84375 " fill-opacity="1" fill-rule="nonzero"/><path fill="rgb(22.349548%, 15.689087%, 11.369324%)" d="M 270.757812 177.65625 C 271.046875 177.808594 271.152344 178.164062 271 178.449219 C 270.851562 178.738281 270.496094 178.847656 270.210938 178.691406 C 269.925781 178.539062 269.816406 178.183594 269.96875 177.898438 C 270.121094 177.613281 270.472656 177.503906 270.757812 177.65625 " fill-opacity="1" fill-rule="nonzero"/><path fill="rgb(22.349548%, 15.689087%, 11.369324%)" d="M 273.925781 171.328125 C 274.21875 171.464844 274.339844 171.816406 274.199219 172.109375 C 274.0625 172.402344 273.710938 172.527344 273.421875 172.382812 C 273.128906 172.246094 273.007812 171.894531 273.144531 171.601562 C 273.285156 171.3125 273.632812 171.1875 273.925781 171.328125 " fill-opacity="1" fill-rule="nonzero"/><path fill="rgb(22.349548%, 15.689087%, 11.369324%)" d="M 276.832031 164.875 C 277.128906 165 277.265625 165.347656 277.136719 165.644531 C 277.007812 165.941406 276.664062 166.078125 276.367188 165.949219 C 276.070312 165.820312 275.933594 165.476562 276.0625 165.179688 C 276.1875 164.886719 276.53125 164.746094 276.832031 164.875 " fill-opacity="1" fill-rule="nonzero"/><path fill="rgb(22.349548%, 15.689087%, 11.369324%)" d="M 279.472656 158.308594 C 279.777344 158.425781 279.929688 158.761719 279.8125 159.066406 C 279.699219 159.371094 279.355469 159.519531 279.054688 159.402344 C 278.753906 159.285156 278.605469 158.949219 278.71875 158.644531 C 278.832031 158.34375 279.171875 158.195312 279.472656 158.308594 " fill-opacity="1" fill-rule="nonzero"/><path fill="rgb(22.349548%, 15.689087%, 11.369324%)" d="M 281.855469 151.644531 C 282.164062 151.75 282.328125 152.082031 282.226562 152.390625 C 282.121094 152.699219 281.785156 152.859375 281.480469 152.753906 C 281.175781 152.652344 281.015625 152.316406 281.117188 152.011719 C 281.21875 151.707031 281.550781 151.542969 281.855469 151.644531 " fill-opacity="1" fill-rule="nonzero"/><path fill="rgb(22.349548%, 15.689087%, 11.369324%)" d="M 284.644531 144.261719 C 284.949219 144.363281 285.113281 144.695312 285.011719 145.003906 C 284.910156 145.3125 284.574219 145.476562 284.269531 145.371094 C 283.964844 145.265625 283.800781 144.933594 283.902344 144.628906 C 284.007812 144.320312 284.335938 144.15625 284.644531 144.261719 " fill-opacity="1" fill-rule="nonzero"/><path fill="rgb(22.349548%, 15.689087%, 11.369324%)" d="M 284.988281 153.488281 C 284.664062 153.488281 284.402344 153.226562 284.402344 152.898438 C 284.402344 152.578125 284.664062 152.316406 284.988281 152.316406 C 285.3125 152.316406 285.574219 152.578125 285.574219 152.898438 C 285.574219 153.226562 285.3125 153.488281 284.988281 153.488281 " fill-opacity="1" fill-rule="nonzero"/><path fill="rgb(22.349548%, 15.689087%, 11.369324%)" d="M 284.988281 160.78125 C 284.664062 160.78125 284.402344 160.519531 284.402344 160.195312 C 284.402344 159.871094 284.664062 159.609375 284.988281 159.609375 C 285.3125 159.609375 285.574219 159.871094 285.574219 160.195312 C 285.574219 160.519531 285.3125 160.78125 284.988281 160.78125 " fill-opacity="1" fill-rule="nonzero"/><path fill="rgb(22.349548%, 15.689087%, 11.369324%)" d="M 284.988281 168.078125 C 284.664062 168.078125 284.402344 167.816406 284.402344 167.488281 C 284.402344 167.167969 284.664062 166.90625 284.988281 166.90625 C 285.3125 166.90625 285.574219 167.167969 285.574219 167.488281 C 285.574219 167.816406 285.3125 168.078125 284.988281 168.078125 " fill-opacity="1" fill-rule="nonzero"/><path fill="rgb(22.349548%, 15.689087%, 11.369324%)" d="M 284.988281 175.371094 C 284.664062 175.371094 284.402344 175.109375 284.402344 174.785156 C 284.402344 174.460938 284.664062 174.199219 284.988281 174.199219 C 285.3125 174.199219 285.574219 174.460938 285.574219 174.785156 C 285.574219 175.109375 285.3125 175.371094 284.988281 175.371094 " fill-opacity="1" fill-rule="nonzero"/><path fill="rgb(22.349548%, 15.689087%, 11.369324%)" d="M 284.988281 182.667969 C 284.664062 182.667969 284.402344 182.40625 284.402344 182.082031 C 284.402344 181.757812 284.664062 181.496094 284.988281 181.496094 C 285.3125 181.496094 285.574219 181.757812 285.574219 182.082031 C 285.574219 182.40625 285.3125 182.667969 284.988281 182.667969 " fill-opacity="1" fill-rule="nonzero"/><path fill="rgb(22.349548%, 15.689087%, 11.369324%)" d="M 284.988281 189.960938 C 284.664062 189.960938 284.402344 189.699219 284.402344 189.375 C 284.402344 189.050781 284.664062 188.789062 284.988281 188.789062 C 285.3125 188.789062 285.574219 189.050781 285.574219 189.375 C 285.574219 189.699219 285.3125 189.960938 284.988281 189.960938 " fill-opacity="1" fill-rule="nonzero"/><path fill="rgb(22.349548%, 15.689087%, 11.369324%)" d="M 284.988281 197.257812 C 284.664062 197.257812 284.402344 196.996094 284.402344 196.671875 C 284.402344 196.347656 284.664062 196.085938 284.988281 196.085938 C 285.3125 196.085938 285.574219 196.347656 285.574219 196.671875 C 285.574219 196.996094 285.3125 197.257812 284.988281 197.257812 " fill-opacity="1" fill-rule="nonzero"/><path fill="rgb(22.349548%, 15.689087%, 11.369324%)" d="M 284.988281 204.550781 C 284.664062 204.550781 284.402344 204.289062 284.402344 203.964844 C 284.402344 203.640625 284.664062 203.378906 284.988281 203.378906 C 285.3125 203.378906 285.574219 203.640625 285.574219 203.964844 C 285.574219 204.289062 285.3125 204.550781 284.988281 204.550781 " fill-opacity="1" fill-rule="nonzero"/><path fill="rgb(22.349548%, 15.689087%, 11.369324%)" d="M 284.988281 211.847656 C 284.664062 211.847656 284.402344 211.585938 284.402344 211.261719 C 284.402344 210.9375 284.664062 210.675781 284.988281 210.675781 C 285.3125 210.675781 285.574219 210.9375 285.574219 211.261719 C 285.574219 211.585938 285.3125 211.847656 284.988281 211.847656 " fill-opacity="1" fill-rule="nonzero"/><path fill="rgb(22.349548%, 15.689087%, 11.369324%)" d="M 284.988281 219.140625 C 284.664062 219.140625 284.402344 218.878906 284.402344 218.554688 C 284.402344 218.234375 284.664062 217.96875 284.988281 217.96875 C 285.3125 217.96875 285.574219 218.234375 285.574219 218.554688 C 285.574219 218.878906 285.3125 219.140625 284.988281 219.140625 " fill-opacity="1" fill-rule="nonzero"/><path fill="rgb(22.349548%, 15.689087%, 11.369324%)" d="M 284.988281 226.4375 C 284.664062 226.4375 284.402344 226.175781 284.402344 225.851562 C 284.402344 225.527344 284.664062 225.265625 284.988281 225.265625 C 285.3125 225.265625 285.574219 225.527344 285.574219 225.851562 C 285.574219 226.175781 285.3125 226.4375 284.988281 226.4375 " fill-opacity="1" fill-rule="nonzero"/><path fill="rgb(22.349548%, 15.689087%, 11.369324%)" d="M 284.988281 233.734375 C 284.664062 233.734375 284.402344 233.46875 284.402344 233.144531 C 284.402344 232.824219 284.664062 232.5625 284.988281 232.5625 C 285.3125 232.5625 285.574219 232.824219 285.574219 233.144531 C 285.574219 233.46875 285.3125 233.734375 284.988281 233.734375 " fill-opacity="1" fill-rule="nonzero"/><path fill="rgb(22.349548%, 15.689087%, 11.369324%)" d="M 284.988281 241.027344 C 284.664062 241.027344 284.402344 240.765625 284.402344 240.441406 C 284.402344 240.117188 284.664062 239.855469 284.988281 239.855469 C 285.3125 239.855469 285.574219 240.117188 285.574219 240.441406 C 285.574219 240.765625 285.3125 241.027344 284.988281 241.027344 " fill-opacity="1" fill-rule="nonzero"/><path fill="rgb(22.349548%, 15.689087%, 11.369324%)" d="M 284.988281 248.324219 C 284.664062 248.324219 284.402344 248.0625 284.402344 247.734375 C 284.402344 247.414062 284.664062 247.152344 284.988281 247.152344 C 285.3125 247.152344 285.574219 247.414062 285.574219 247.734375 C 285.574219 248.0625 285.3125 248.324219 284.988281 248.324219 " fill-opacity="1" fill-rule="nonzero"/><path fill="rgb(22.349548%, 15.689087%, 11.369324%)" d="M 284.988281 255.617188 C 284.664062 255.617188 284.402344 255.355469 284.402344 255.03125 C 284.402344 254.707031 284.664062 254.445312 284.988281 254.445312 C 285.3125 254.445312 285.574219 254.707031 285.574219 255.03125 C 285.574219 255.355469 285.3125 255.617188 284.988281 255.617188 " fill-opacity="1" fill-rule="nonzero"/><path fill="rgb(22.349548%, 15.689087%, 11.369324%)" d="M 284.988281 262.914062 C 284.664062 262.914062 284.402344 262.652344 284.402344 262.328125 C 284.402344 262.003906 284.664062 261.742188 284.988281 261.742188 C 285.3125 261.742188 285.574219 262.003906 285.574219 262.328125 C 285.574219 262.652344 285.3125 262.914062 284.988281 262.914062 " fill-opacity="1" fill-rule="nonzero"/><path fill="rgb(22.349548%, 15.689087%, 11.369324%)" d="M 284.988281 270.207031 C 284.664062 270.207031 284.402344 269.945312 284.402344 269.621094 C 284.402344 269.296875 284.664062 269.035156 284.988281 269.035156 C 285.3125 269.035156 285.574219 269.296875 285.574219 269.621094 C 285.574219 269.945312 285.3125 270.207031 284.988281 270.207031 " fill-opacity="1" fill-rule="nonzero"/><path fill="rgb(22.349548%, 15.689087%, 11.369324%)" d="M 29.683594 176.71875 C 30.007812 176.71875 30.269531 176.980469 30.269531 177.304688 C 30.269531 177.628906 30.007812 177.890625 29.683594 177.890625 C 29.359375 177.890625 29.097656 177.628906 29.097656 177.304688 C 29.097656 176.980469 29.359375 176.71875 29.683594 176.71875 " fill-opacity="1" fill-rule="nonzero"/><path fill="rgb(22.349548%, 15.689087%, 11.369324%)" d="M 29.683594 169.152344 C 30.007812 169.152344 30.269531 169.417969 30.269531 169.742188 C 30.269531 170.0625 30.007812 170.324219 29.683594 170.324219 C 29.359375 170.324219 29.097656 170.0625 29.097656 169.742188 C 29.097656 169.417969 29.359375 169.152344 29.683594 169.152344 " fill-opacity="1" fill-rule="nonzero"/><path fill="rgb(22.349548%, 15.689087%, 11.369324%)" d="M 29.683594 161.589844 C 30.007812 161.589844 30.269531 161.855469 30.269531 162.175781 C 30.269531 162.5 30.007812 162.765625 29.683594 162.765625 C 29.359375 162.765625 29.097656 162.5 29.097656 162.175781 C 29.097656 161.855469 29.359375 161.589844 29.683594 161.589844 " fill-opacity="1" fill-rule="nonzero"/><path fill="rgb(22.349548%, 15.689087%, 11.369324%)" d="M 29.683594 154.027344 C 30.007812 154.027344 30.269531 154.292969 30.269531 154.613281 C 30.269531 154.9375 30.007812 155.203125 29.683594 155.203125 C 29.359375 155.203125 29.097656 154.9375 29.097656 154.613281 C 29.097656 154.292969 29.359375 154.027344 29.683594 154.027344 " fill-opacity="1" fill-rule="nonzero"/><path fill="rgb(22.349548%, 15.689087%, 11.369324%)" d="M 29.683594 146.464844 C 30.007812 146.464844 30.269531 146.726562 30.269531 147.054688 C 30.269531 147.375 30.007812 147.636719 29.683594 147.636719 C 29.359375 147.636719 29.097656 147.375 29.097656 147.054688 C 29.097656 146.726562 29.359375 146.464844 29.683594 146.464844 " fill-opacity="1" fill-rule="nonzero"/><path fill="rgb(22.349548%, 15.689087%, 11.369324%)" d="M 29.683594 138.902344 C 30.007812 138.902344 30.269531 139.167969 30.269531 139.488281 C 30.269531 139.8125 30.007812 140.074219 29.683594 140.074219 C 29.359375 140.074219 29.097656 139.8125 29.097656 139.488281 C 29.097656 139.167969 29.359375 138.902344 29.683594 138.902344 " fill-opacity="1" fill-rule="nonzero"/><path fill="rgb(22.349548%, 15.689087%, 11.369324%)" d="M 29.683594 131.34375 C 30.007812 131.34375 30.269531 131.605469 30.269531 131.929688 C 30.269531 132.25 30.007812 132.511719 29.683594 132.511719 C 29.359375 132.511719 29.097656 132.25 29.097656 131.929688 C 29.097656 131.605469 29.359375 131.34375 29.683594 131.34375 " fill-opacity="1" fill-rule="nonzero"/><path fill="rgb(22.349548%, 15.689087%, 11.369324%)" d="M 29.683594 123.777344 C 30.007812 123.777344 30.269531 124.042969 30.269531 124.363281 C 30.269531 124.6875 30.007812 124.949219 29.683594 124.949219 C 29.359375 124.949219 29.097656 124.6875 29.097656 124.363281 C 29.097656 124.042969 29.359375 123.777344 29.683594 123.777344 " fill-opacity="1" fill-rule="nonzero"/><path fill="rgb(22.349548%, 15.689087%, 11.369324%)" d="M 29.683594 116.214844 C 30.007812 116.214844 30.269531 116.480469 30.269531 116.800781 C 30.269531 117.125 30.007812 117.386719 29.683594 117.386719 C 29.359375 117.386719 29.097656 117.125 29.097656 116.800781 C 29.097656 116.480469 29.359375 116.214844 29.683594 116.214844 " fill-opacity="1" fill-rule="nonzero"/><path fill="rgb(22.349548%, 15.689087%, 11.369324%)" d="M 29.683594 108.652344 C 30.007812 108.652344 30.269531 108.914062 30.269531 109.238281 C 30.269531 109.5625 30.007812 109.824219 29.683594 109.824219 C 29.359375 109.824219 29.097656 109.5625 29.097656 109.238281 C 29.097656 108.914062 29.359375 108.652344 29.683594 108.652344 " fill-opacity="1" fill-rule="nonzero"/><path fill="rgb(22.349548%, 15.689087%, 11.369324%)" d="M 30.339844 100.121094 C 30.664062 100.121094 30.925781 100.382812 30.925781 100.707031 C 30.925781 101.03125 30.664062 101.292969 30.339844 101.292969 C 30.015625 101.292969 29.753906 101.03125 29.753906 100.707031 C 29.753906 100.382812 30.015625 100.121094 30.339844 100.121094 " fill-opacity="1" fill-rule="nonzero"/><path fill="rgb(22.349548%, 15.689087%, 11.369324%)" d="M 33.1875 108.992188 C 32.878906 109.089844 32.546875 108.921875 32.449219 108.613281 C 32.347656 108.304688 32.523438 107.972656 32.832031 107.875 C 33.140625 107.777344 33.464844 107.949219 33.5625 108.257812 C 33.664062 108.5625 33.496094 108.890625 33.1875 108.992188 " fill-opacity="1" fill-rule="nonzero"/><path fill="rgb(22.349548%, 15.689087%, 11.369324%)" d="M 35.554688 115.792969 C 35.253906 115.90625 34.914062 115.75 34.800781 115.445312 C 34.691406 115.140625 34.84375 114.804688 35.148438 114.691406 C 35.453125 114.582031 35.789062 114.738281 35.902344 115.039062 C 36.011719 115.339844 35.859375 115.679688 35.554688 115.792969 " fill-opacity="1" fill-rule="nonzero"/><path fill="rgb(22.349548%, 15.689087%, 11.369324%)" d="M 38.234375 122.472656 C 37.9375 122.601562 37.59375 122.460938 37.46875 122.164062 C 37.339844 121.863281 37.476562 121.519531 37.777344 121.394531 C 38.074219 121.269531 38.417969 121.410156 38.546875 121.707031 C 38.671875 122 38.53125 122.34375 38.234375 122.472656 " fill-opacity="1" fill-rule="nonzero"/><path fill="rgb(22.349548%, 15.689087%, 11.369324%)" d="M 41.226562 129.019531 C 40.9375 129.164062 40.585938 129.042969 40.441406 128.75 C 40.296875 128.460938 40.425781 128.105469 40.71875 127.964844 C 41.011719 127.828125 41.351562 127.953125 41.496094 128.242188 C 41.636719 128.53125 41.519531 128.878906 41.226562 129.019531 " fill-opacity="1" fill-rule="nonzero"/><path fill="rgb(22.349548%, 15.689087%, 11.369324%)" d="M 44.542969 135.414062 C 44.257812 135.570312 43.90625 135.464844 43.75 135.179688 C 43.59375 134.894531 43.699219 134.535156 43.980469 134.382812 C 44.265625 134.230469 44.621094 134.332031 44.777344 134.613281 C 44.929688 134.898438 44.824219 135.253906 44.542969 135.414062 " fill-opacity="1" fill-rule="nonzero"/><path fill="rgb(22.349548%, 15.689087%, 11.369324%)" d="M 48.195312 141.613281 C 47.921875 141.785156 47.558594 141.703125 47.382812 141.429688 C 47.214844 141.152344 47.300781 140.785156 47.578125 140.617188 C 47.851562 140.449219 48.210938 140.535156 48.378906 140.808594 C 48.550781 141.082031 48.46875 141.441406 48.195312 141.613281 " fill-opacity="1" fill-rule="nonzero"/><path fill="rgb(22.349548%, 15.689087%, 11.369324%)" d="M 52.203125 147.589844 C 51.941406 147.777344 51.574219 147.71875 51.386719 147.453125 C 51.199219 147.1875 51.257812 146.820312 51.523438 146.636719 C 51.789062 146.453125 52.15625 146.511719 52.34375 146.773438 C 52.527344 147.035156 52.46875 147.402344 52.203125 147.589844 " fill-opacity="1" fill-rule="nonzero"/><path fill="rgb(22.349548%, 15.689087%, 11.369324%)" d="M 56.578125 153.304688 C 56.328125 153.511719 55.960938 153.472656 55.753906 153.21875 C 55.550781 152.964844 55.589844 152.597656 55.84375 152.394531 C 56.09375 152.191406 56.464844 152.230469 56.664062 152.480469 C 56.867188 152.730469 56.828125 153.101562 56.578125 153.304688 " fill-opacity="1" fill-rule="nonzero"/><path fill="rgb(22.349548%, 15.689087%, 11.369324%)" d="M 61.328125 158.710938 C 61.09375 158.933594 60.726562 158.921875 60.503906 158.679688 C 60.285156 158.441406 60.300781 158.066406 60.535156 157.847656 C 60.773438 157.628906 61.140625 157.640625 61.359375 157.878906 C 61.578125 158.117188 61.5625 158.488281 61.328125 158.710938 " fill-opacity="1" fill-rule="nonzero"/><path fill="rgb(22.349548%, 15.689087%, 11.369324%)" d="M 66.480469 163.730469 C 66.265625 163.972656 65.890625 163.992188 65.648438 163.777344 C 65.410156 163.554688 65.398438 163.179688 65.617188 162.945312 C 65.835938 162.707031 66.203125 162.691406 66.4375 162.914062 C 66.675781 163.125 66.699219 163.492188 66.480469 163.730469 " fill-opacity="1" fill-rule="nonzero"/><path fill="rgb(22.349548%, 15.689087%, 11.369324%)" d="M 72.019531 168.324219 C 71.824219 168.582031 71.453125 168.632812 71.195312 168.4375 C 70.933594 168.242188 70.882812 167.878906 71.082031 167.621094 C 71.28125 167.367188 71.652344 167.316406 71.910156 167.507812 C 72.164062 167.699219 72.214844 168.066406 72.019531 168.324219 " fill-opacity="1" fill-rule="nonzero"/><path fill="rgb(22.349548%, 15.689087%, 11.369324%)" d="M 77.929688 172.421875 C 77.757812 172.695312 77.394531 172.777344 77.117188 172.605469 C 76.84375 172.429688 76.761719 172.070312 76.9375 171.800781 C 77.113281 171.527344 77.476562 171.445312 77.75 171.617188 C 78.019531 171.785156 78.101562 172.144531 77.929688 172.421875 " fill-opacity="1" fill-rule="nonzero"/><path fill="rgb(22.349548%, 15.689087%, 11.369324%)" d="M 84.1875 175.964844 C 84.042969 176.253906 83.6875 176.367188 83.398438 176.222656 C 83.105469 176.074219 82.992188 175.722656 83.140625 175.433594 C 83.292969 175.148438 83.648438 175.035156 83.933594 175.179688 C 84.21875 175.324219 84.332031 175.675781 84.1875 175.964844 " fill-opacity="1" fill-rule="nonzero"/><path fill="rgb(22.349548%, 15.689087%, 11.369324%)" d="M 90.746094 178.910156 C 90.628906 179.210938 90.289062 179.359375 89.984375 179.238281 C 89.679688 179.117188 89.535156 178.777344 89.65625 178.480469 C 89.78125 178.179688 90.121094 178.03125 90.421875 178.152344 C 90.71875 178.269531 90.863281 178.605469 90.746094 178.910156 " fill-opacity="1" fill-rule="nonzero"/><path fill="rgb(22.349548%, 15.689087%, 11.369324%)" d="M 97.554688 181.21875 C 97.464844 181.53125 97.140625 181.710938 96.824219 181.621094 C 96.511719 181.53125 96.335938 181.207031 96.429688 180.898438 C 96.523438 180.589844 96.851562 180.410156 97.160156 180.496094 C 97.464844 180.585938 97.644531 180.910156 97.554688 181.21875 " fill-opacity="1" fill-rule="nonzero"/><path fill="rgb(22.349548%, 15.689087%, 11.369324%)" d="M 104.546875 182.890625 C 104.484375 183.210938 104.175781 183.417969 103.855469 183.359375 C 103.535156 183.300781 103.328125 182.996094 103.394531 182.679688 C 103.460938 182.363281 103.769531 182.152344 104.085938 182.210938 C 104.398438 182.269531 104.605469 182.574219 104.546875 182.890625 " fill-opacity="1" fill-rule="nonzero"/><path fill="rgb(22.349548%, 15.689087%, 11.369324%)" d="M 111.660156 183.941406 C 111.628906 184.261719 111.335938 184.5 111.011719 184.472656 C 110.691406 184.429688 110.457031 184.132812 110.496094 183.8125 C 110.535156 183.488281 110.824219 183.261719 111.140625 183.304688 C 111.457031 183.335938 111.691406 183.617188 111.660156 183.941406 " fill-opacity="1" fill-rule="nonzero"/><path fill="rgb(22.349548%, 15.689087%, 11.369324%)" d="M 118.835938 184.371094 C 118.832031 184.695312 118.5625 184.949219 118.238281 184.9375 C 117.910156 184.925781 117.65625 184.652344 117.667969 184.328125 C 117.679688 184.007812 117.945312 183.753906 118.269531 183.765625 C 118.589844 183.777344 118.84375 184.050781 118.835938 184.371094 " fill-opacity="1" fill-rule="nonzero"/><path fill="rgb(22.349548%, 15.689087%, 11.369324%)" d="M 126.027344 184.230469 C 126.042969 184.554688 125.792969 184.832031 125.46875 184.847656 C 125.144531 184.867188 124.871094 184.617188 124.855469 184.296875 C 124.84375 183.972656 125.089844 183.695312 125.414062 183.675781 C 125.734375 183.660156 126.007812 183.90625 126.027344 184.230469 " fill-opacity="1" fill-rule="nonzero"/><path fill="rgb(22.349548%, 15.689087%, 11.369324%)" d="M 133.191406 183.609375 C 133.210938 183.769531 133.160156 183.921875 133.070312 184.042969 C 132.976562 184.160156 132.839844 184.238281 132.675781 184.257812 C 132.351562 184.289062 132.058594 184.054688 132.023438 183.734375 C 131.988281 183.410156 132.21875 183.125 132.539062 183.089844 C 132.699219 183.074219 132.851562 183.128906 132.96875 183.222656 C 133.085938 183.3125 133.167969 183.445312 133.191406 183.609375 " fill-opacity="1" fill-rule="nonzero"/><path fill="rgb(22.349548%, 15.689087%, 11.369324%)" d="M 140.289062 182.476562 C 140.351562 182.792969 140.140625 183.101562 139.820312 183.160156 C 139.5 183.222656 139.195312 183.011719 139.140625 182.691406 C 139.082031 182.371094 139.292969 182.066406 139.609375 182.007812 C 139.925781 181.949219 140.230469 182.160156 140.289062 182.476562 " fill-opacity="1" fill-rule="nonzero"/><path fill="rgb(22.349548%, 15.689087%, 11.369324%)" d="M 147.320312 180.96875 C 147.398438 181.28125 147.207031 181.59375 146.890625 181.667969 C 146.570312 181.742188 146.253906 181.542969 146.179688 181.226562 C 146.109375 180.914062 146.300781 180.601562 146.613281 180.527344 C 146.929688 180.457031 147.246094 180.652344 147.320312 180.96875 " fill-opacity="1" fill-rule="nonzero"/><path fill="rgb(22.349548%, 15.689087%, 11.369324%)" d="M 154.257812 179.058594 C 154.351562 179.367188 154.175781 179.699219 153.863281 179.792969 C 153.554688 179.890625 153.230469 179.71875 153.140625 179.40625 C 153.050781 179.097656 153.222656 178.765625 153.53125 178.671875 C 153.839844 178.574219 154.164062 178.75 154.257812 179.058594 " fill-opacity="1" fill-rule="nonzero"/><path fill="rgb(22.349548%, 15.689087%, 11.369324%)" d="M 161.09375 176.824219 C 161.199219 177.132812 161.039062 177.464844 160.730469 177.574219 C 160.425781 177.679688 160.09375 177.519531 159.988281 177.210938 C 159.882812 176.90625 160.046875 176.570312 160.347656 176.464844 C 160.652344 176.359375 160.988281 176.519531 161.09375 176.824219 " fill-opacity="1" fill-rule="nonzero"/><path fill="rgb(22.349548%, 15.689087%, 11.369324%)" d="M 167.832031 174.3125 C 167.953125 174.613281 167.804688 174.953125 167.5 175.070312 C 167.199219 175.1875 166.859375 175.035156 166.742188 174.734375 C 166.625 174.433594 166.773438 174.09375 167.070312 173.976562 C 167.371094 173.859375 167.714844 174.011719 167.832031 174.3125 " fill-opacity="1" fill-rule="nonzero"/><path fill="rgb(22.349548%, 15.689087%, 11.369324%)" d="M 174.46875 171.539062 C 174.601562 171.835938 174.464844 172.179688 174.164062 172.304688 C 173.867188 172.433594 173.519531 172.296875 173.390625 172 C 173.265625 171.699219 173.402344 171.359375 173.695312 171.230469 C 173.992188 171.105469 174.339844 171.242188 174.46875 171.539062 " fill-opacity="1" fill-rule="nonzero"/><path fill="rgb(22.349548%, 15.689087%, 11.369324%)" d="M 181.007812 168.53125 C 181.144531 168.824219 181.019531 169.171875 180.726562 169.308594 C 180.433594 169.445312 180.082031 169.320312 179.945312 169.027344 C 179.804688 168.734375 179.929688 168.386719 180.222656 168.25 C 180.511719 168.113281 180.863281 168.242188 181.007812 168.53125 " fill-opacity="1" fill-rule="nonzero"/><path fill="rgb(22.349548%, 15.689087%, 11.369324%)" d="M 187.5625 165.910156 C 187.699219 166.199219 187.574219 166.546875 187.28125 166.683594 C 186.988281 166.820312 186.636719 166.695312 186.5 166.402344 C 186.359375 166.109375 186.484375 165.761719 186.777344 165.625 C 187.070312 165.488281 187.417969 165.617188 187.5625 165.910156 " fill-opacity="1" fill-rule="nonzero"/><path fill="rgb(22.349548%, 15.689087%, 11.369324%)" d="M 187.253906 173.527344 C 186.929688 173.527344 186.667969 173.265625 186.667969 172.941406 C 186.667969 172.617188 186.929688 172.355469 187.253906 172.355469 C 187.578125 172.355469 187.839844 172.617188 187.839844 172.941406 C 187.839844 173.265625 187.578125 173.527344 187.253906 173.527344 " fill-opacity="1" fill-rule="nonzero"/><path fill="rgb(22.349548%, 15.689087%, 11.369324%)" d="M 187.253906 180.683594 C 186.929688 180.683594 186.667969 180.421875 186.667969 180.097656 C 186.667969 179.773438 186.929688 179.511719 187.253906 179.511719 C 187.578125 179.511719 187.839844 179.773438 187.839844 180.097656 C 187.839844 180.421875 187.578125 180.683594 187.253906 180.683594 " fill-opacity="1" fill-rule="nonzero"/><path fill="rgb(22.349548%, 15.689087%, 11.369324%)" d="M 187.253906 187.835938 C 186.929688 187.835938 186.667969 187.574219 186.667969 187.25 C 186.667969 186.929688 186.929688 186.664062 187.253906 186.664062 C 187.578125 186.664062 187.839844 186.929688 187.839844 187.25 C 187.839844 187.574219 187.578125 187.835938 187.253906 187.835938 " fill-opacity="1" fill-rule="nonzero"/><path fill="rgb(22.349548%, 15.689087%, 11.369324%)" d="M 187.253906 194.992188 C 186.929688 194.992188 186.667969 194.730469 186.667969 194.40625 C 186.667969 194.082031 186.929688 193.820312 187.253906 193.820312 C 187.578125 193.820312 187.839844 194.082031 187.839844 194.40625 C 187.839844 194.730469 187.578125 194.992188 187.253906 194.992188 " fill-opacity="1" fill-rule="nonzero"/><path fill="rgb(22.349548%, 15.689087%, 11.369324%)" d="M 187.253906 202.148438 C 186.929688 202.148438 186.667969 201.882812 186.667969 201.5625 C 186.667969 201.238281 186.929688 200.972656 187.253906 200.972656 C 187.578125 200.972656 187.839844 201.238281 187.839844 201.5625 C 187.839844 201.882812 187.578125 202.148438 187.253906 202.148438 " fill-opacity="1" fill-rule="nonzero"/><path fill="rgb(22.349548%, 15.689087%, 11.369324%)" d="M 187.253906 209.300781 C 186.929688 209.300781 186.667969 209.039062 186.667969 208.714844 C 186.667969 208.390625 186.929688 208.128906 187.253906 208.128906 C 187.578125 208.128906 187.839844 208.390625 187.839844 208.714844 C 187.839844 209.039062 187.578125 209.300781 187.253906 209.300781 " fill-opacity="1" fill-rule="nonzero"/><path fill="rgb(22.349548%, 15.689087%, 11.369324%)" d="M 187.253906 216.457031 C 186.929688 216.457031 186.667969 216.191406 186.667969 215.871094 C 186.667969 215.546875 186.929688 215.285156 187.253906 215.285156 C 187.578125 215.285156 187.839844 215.546875 187.839844 215.871094 C 187.839844 216.191406 187.578125 216.457031 187.253906 216.457031 " fill-opacity="1" fill-rule="nonzero"/><path fill="rgb(22.349548%, 15.689087%, 11.369324%)" d="M 187.253906 223.609375 C 186.929688 223.609375 186.667969 223.347656 186.667969 223.023438 C 186.667969 222.699219 186.929688 222.4375 187.253906 222.4375 C 187.578125 222.4375 187.839844 222.699219 187.839844 223.023438 C 187.839844 223.347656 187.578125 223.609375 187.253906 223.609375 " fill-opacity="1" fill-rule="nonzero"/><path fill="rgb(22.349548%, 15.689087%, 11.369324%)" d="M 187.253906 230.765625 C 186.929688 230.765625 186.667969 230.503906 186.667969 230.179688 C 186.667969 229.855469 186.929688 229.59375 187.253906 229.59375 C 187.578125 229.59375 187.839844 229.855469 187.839844 230.179688 C 187.839844 230.503906 187.578125 230.765625 187.253906 230.765625 " fill-opacity="1" fill-rule="nonzero"/><path fill="rgb(22.349548%, 15.689087%, 11.369324%)" d="M 187.253906 237.917969 C 186.929688 237.917969 186.667969 237.65625 186.667969 237.332031 C 186.667969 237.011719 186.929688 236.746094 187.253906 236.746094 C 187.578125 236.746094 187.839844 237.011719 187.839844 237.332031 C 187.839844 237.65625 187.578125 237.917969 187.253906 237.917969 " fill-opacity="1" fill-rule="nonzero"/><path fill="rgb(22.349548%, 15.689087%, 11.369324%)" d="M 187.253906 245.074219 C 186.929688 245.074219 186.667969 244.8125 186.667969 244.488281 C 186.667969 244.164062 186.929688 243.902344 187.253906 243.902344 C 187.578125 243.902344 187.839844 244.164062 187.839844 244.488281 C 187.839844 244.8125 187.578125 245.074219 187.253906 245.074219 " fill-opacity="1" fill-rule="nonzero"/><path fill="rgb(22.349548%, 15.689087%, 11.369324%)" d="M 187.253906 252.230469 C 186.929688 252.230469 186.667969 251.964844 186.667969 251.644531 C 186.667969 251.320312 186.929688 251.054688 187.253906 251.054688 C 187.578125 251.054688 187.839844 251.320312 187.839844 251.644531 C 187.839844 251.964844 187.578125 252.230469 187.253906 252.230469 " fill-opacity="1" fill-rule="nonzero"/><path fill="rgb(22.349548%, 15.689087%, 11.369324%)" d="M 187.253906 259.382812 C 186.929688 259.382812 186.667969 259.121094 186.667969 258.796875 C 186.667969 258.472656 186.929688 258.210938 187.253906 258.210938 C 187.578125 258.210938 187.839844 258.472656 187.839844 258.796875 C 187.839844 259.121094 187.578125 259.382812 187.253906 259.382812 " fill-opacity="1" fill-rule="nonzero"/><path fill="rgb(22.349548%, 15.689087%, 11.369324%)" d="M 187.253906 266.539062 C 186.929688 266.539062 186.667969 266.277344 186.667969 265.953125 C 186.667969 265.628906 186.929688 265.367188 187.253906 265.367188 C 187.578125 265.367188 187.839844 265.628906 187.839844 265.953125 C 187.839844 266.277344 187.578125 266.539062 187.253906 266.539062 " fill-opacity="1" fill-rule="nonzero"/><path fill="rgb(22.349548%, 15.689087%, 11.369324%)" d="M 187.253906 273.691406 C 186.929688 273.691406 186.667969 273.429688 186.667969 273.105469 C 186.667969 272.78125 186.929688 272.519531 187.253906 272.519531 C 187.578125 272.519531 187.839844 272.78125 187.839844 273.105469 C 187.839844 273.429688 187.578125 273.691406 187.253906 273.691406 " fill-opacity="1" fill-rule="nonzero"/><path fill="rgb(22.349548%, 15.689087%, 11.369324%)" d="M 187.253906 280.847656 C 186.929688 280.847656 186.667969 280.585938 186.667969 280.261719 C 186.667969 279.9375 186.929688 279.675781 187.253906 279.675781 C 187.578125 279.675781 187.839844 279.9375 187.839844 280.261719 C 187.839844 280.585938 187.578125 280.847656 187.253906 280.847656 " fill-opacity="1" fill-rule="nonzero"/><path fill="rgb(22.349548%, 15.689087%, 11.369324%)" d="M 187.253906 288 C 186.929688 288 186.667969 287.738281 186.667969 287.414062 C 186.667969 287.089844 186.929688 286.828125 187.253906 286.828125 C 187.578125 286.828125 187.839844 287.089844 187.839844 287.414062 C 187.839844 287.738281 187.578125 288 187.253906 288 " fill-opacity="1" fill-rule="nonzero"/><path fill="rgb(22.349548%, 15.689087%, 11.369324%)" d="M 187.253906 295.15625 C 186.929688 295.15625 186.667969 294.894531 186.667969 294.570312 C 186.667969 294.246094 186.929688 293.984375 187.253906 293.984375 C 187.578125 293.984375 187.839844 294.246094 187.839844 294.570312 C 187.839844 294.894531 187.578125 295.15625 187.253906 295.15625 " fill-opacity="1" fill-rule="nonzero"/><path fill="rgb(22.349548%, 15.689087%, 11.369324%)" d="M 187.253906 302.3125 C 186.929688 302.3125 186.667969 302.050781 186.667969 301.726562 C 186.667969 301.402344 186.929688 301.140625 187.253906 301.140625 C 187.578125 301.140625 187.839844 301.402344 187.839844 301.726562 C 187.839844 302.050781 187.578125 302.3125 187.253906 302.3125 " fill-opacity="1" fill-rule="nonzero"/><path fill="rgb(22.349548%, 15.689087%, 11.369324%)" d="M 187.253906 309.464844 C 186.929688 309.464844 186.667969 309.203125 186.667969 308.878906 C 186.667969 308.554688 186.929688 308.292969 187.253906 308.292969 C 187.578125 308.292969 187.839844 308.554688 187.839844 308.878906 C 187.839844 309.203125 187.578125 309.464844 187.253906 309.464844 " fill-opacity="1" fill-rule="nonzero"/><path fill="rgb(22.349548%, 15.689087%, 11.369324%)" d="M 187.253906 316.621094 C 186.929688 316.621094 186.667969 316.355469 186.667969 316.035156 C 186.667969 315.710938 186.929688 315.449219 187.253906 315.449219 C 187.578125 315.449219 187.839844 315.710938 187.839844 316.035156 C 187.839844 316.355469 187.578125 316.621094 187.253906 316.621094 " fill-opacity="1" fill-rule="nonzero"/><path fill="rgb(22.349548%, 15.689087%, 11.369324%)" d="M 192.808594 170 C 192.617188 170.261719 192.25 170.3125 191.988281 170.117188 C 191.730469 169.921875 191.675781 169.550781 191.875 169.296875 C 192.070312 169.039062 192.4375 168.988281 192.695312 169.179688 C 192.953125 169.375 193.003906 169.742188 192.808594 170 " fill-opacity="1" fill-rule="nonzero"/><path fill="rgb(22.349548%, 15.689087%, 11.369324%)" d="M 198.769531 174.058594 C 198.597656 174.335938 198.230469 174.417969 197.957031 174.246094 C 197.683594 174.070312 197.605469 173.707031 197.777344 173.433594 C 197.953125 173.160156 198.3125 173.082031 198.582031 173.257812 C 198.855469 173.425781 198.9375 173.785156 198.769531 174.058594 " fill-opacity="1" fill-rule="nonzero"/><path fill="rgb(22.349548%, 15.689087%, 11.369324%)" d="M 205.023438 177.640625 C 204.875 177.925781 204.519531 178.035156 204.234375 177.882812 C 203.945312 177.730469 203.835938 177.375 203.988281 177.085938 C 204.144531 176.800781 204.496094 176.695312 204.777344 176.84375 C 205.0625 176.996094 205.171875 177.351562 205.023438 177.640625 " fill-opacity="1" fill-rule="nonzero"/><path fill="rgb(22.349548%, 15.689087%, 11.369324%)" d="M 211.550781 180.695312 C 211.425781 180.996094 211.082031 181.136719 210.777344 181.011719 C 210.480469 180.878906 210.34375 180.53125 210.472656 180.234375 C 210.601562 179.9375 210.945312 179.804688 211.238281 179.933594 C 211.535156 180.058594 211.675781 180.398438 211.550781 180.695312 " fill-opacity="1" fill-rule="nonzero"/><path fill="rgb(22.349548%, 15.689087%, 11.369324%)" d="M 218.304688 183.207031 C 218.207031 183.515625 217.871094 183.6875 217.5625 183.589844 C 217.253906 183.484375 217.089844 183.144531 217.191406 182.839844 C 217.296875 182.535156 217.625 182.371094 217.929688 182.476562 C 218.234375 182.574219 218.402344 182.902344 218.304688 183.207031 " fill-opacity="1" fill-rule="nonzero"/><path fill="rgb(22.349548%, 15.689087%, 11.369324%)" d="M 225.25 185.128906 C 225.175781 185.449219 224.859375 185.644531 224.546875 185.5625 C 224.230469 185.484375 224.035156 185.164062 224.109375 184.851562 C 224.1875 184.539062 224.503906 184.347656 224.8125 184.421875 C 225.125 184.5 225.320312 184.816406 225.25 185.128906 " fill-opacity="1" fill-rule="nonzero"/><path fill="rgb(22.349548%, 15.689087%, 11.369324%)" d="M 232.339844 186.398438 C 232.300781 186.71875 232.003906 186.941406 231.679688 186.898438 C 231.359375 186.855469 231.132812 186.558594 231.183594 186.238281 C 231.230469 185.917969 231.527344 185.691406 231.84375 185.738281 C 232.160156 185.78125 232.382812 186.078125 232.339844 186.398438 " fill-opacity="1" fill-rule="nonzero"/><path fill="rgb(22.349548%, 15.689087%, 11.369324%)" d="M 239.523438 187.003906 C 239.507812 187.328125 239.234375 187.582031 238.910156 187.574219 C 238.585938 187.558594 238.332031 187.277344 238.351562 186.953125 C 238.367188 186.628906 238.640625 186.390625 238.960938 186.402344 C 239.28125 186.410156 239.53125 186.679688 239.523438 187.003906 " fill-opacity="1" fill-rule="nonzero"/><path fill="rgb(22.349548%, 15.689087%, 11.369324%)" d="M 246.726562 186.910156 C 246.746094 187.234375 246.496094 187.511719 246.171875 187.527344 C 245.84375 187.546875 245.570312 187.300781 245.554688 186.976562 C 245.542969 186.652344 245.789062 186.375 246.109375 186.359375 C 246.429688 186.339844 246.703125 186.589844 246.726562 186.910156 " fill-opacity="1" fill-rule="nonzero"/><path fill="rgb(22.349548%, 15.689087%, 11.369324%)" d="M 253.886719 186.144531 C 253.9375 186.460938 253.71875 186.757812 253.394531 186.804688 C 253.070312 186.847656 252.773438 186.625 252.726562 186.304688 C 252.683594 185.984375 252.902344 185.6875 253.222656 185.644531 C 253.539062 185.597656 253.835938 185.824219 253.886719 186.144531 " fill-opacity="1" fill-rule="nonzero"/><path fill="rgb(22.349548%, 15.689087%, 11.369324%)" d="M 260.945312 184.6875 C 261.023438 185 260.835938 185.332031 260.515625 185.402344 C 260.199219 185.476562 259.878906 185.277344 259.804688 184.964844 C 259.730469 184.648438 259.925781 184.335938 260.238281 184.265625 C 260.550781 184.195312 260.863281 184.371094 260.945312 184.6875 " fill-opacity="1" fill-rule="nonzero"/><path fill="rgb(22.349548%, 15.689087%, 11.369324%)" d="M 267.84375 182.601562 C 267.949219 182.90625 267.785156 183.246094 267.480469 183.355469 C 267.171875 183.464844 266.835938 183.289062 266.734375 182.984375 C 266.632812 182.675781 266.800781 182.351562 267.101562 182.246094 C 267.402344 182.136719 267.734375 182.296875 267.84375 182.601562 " fill-opacity="1" fill-rule="nonzero"/><path fill="rgb(22.349548%, 15.689087%, 11.369324%)" d="M 274.539062 179.941406 C 274.671875 180.234375 274.539062 180.585938 274.242188 180.722656 C 273.941406 180.847656 273.59375 180.707031 273.464844 180.410156 C 273.339844 180.113281 273.476562 179.773438 273.773438 179.648438 C 274.0625 179.515625 274.40625 179.644531 274.539062 179.941406 " fill-opacity="1" fill-rule="nonzero"/><path fill="rgb(22.349548%, 15.689087%, 11.369324%)" d="M 281.011719 176.765625 C 281.164062 177.050781 281.054688 177.402344 280.761719 177.550781 C 280.472656 177.699219 280.117188 177.589844 279.96875 177.300781 C 279.820312 177.015625 279.929688 176.664062 280.214844 176.515625 C 280.5 176.371094 280.855469 176.480469 281.011719 176.765625 " fill-opacity="1" fill-rule="nonzero"/><path fill="rgb(22.349548%, 15.689087%, 11.369324%)" d="M 287.222656 173.109375 C 287.394531 173.382812 287.308594 173.742188 287.035156 173.914062 C 286.757812 174.085938 286.394531 174 286.226562 173.726562 C 286.058594 173.449219 286.140625 173.089844 286.414062 172.921875 C 286.6875 172.75 287.050781 172.835938 287.222656 173.109375 " fill-opacity="1" fill-rule="nonzero"/><path fill="rgb(22.349548%, 15.689087%, 11.369324%)" d="M 293.183594 169.058594 C 293.375 169.324219 293.316406 169.691406 293.050781 169.882812 C 292.789062 170.074219 292.425781 170.015625 292.238281 169.75 C 292.050781 169.488281 292.113281 169.117188 292.371094 168.929688 C 292.628906 168.738281 292.996094 168.796875 293.183594 169.058594 " fill-opacity="1" fill-rule="nonzero"/><path fill="rgb(22.349548%, 15.689087%, 11.369324%)" d="M 298.910156 164.679688 C 299.113281 164.929688 299.074219 165.296875 298.816406 165.5 C 298.5625 165.699219 298.191406 165.65625 297.992188 165.40625 C 297.789062 165.152344 297.832031 164.785156 298.082031 164.585938 C 298.335938 164.386719 298.707031 164.429688 298.910156 164.679688 " fill-opacity="1" fill-rule="nonzero"/><path fill="rgb(22.349548%, 15.689087%, 11.369324%)" d="M 304.375 159.96875 C 304.589844 160.210938 304.570312 160.582031 304.328125 160.800781 C 304.085938 161.019531 303.71875 161 303.503906 160.757812 C 303.289062 160.515625 303.3125 160.144531 303.546875 159.925781 C 303.785156 159.710938 304.15625 159.730469 304.375 159.96875 " fill-opacity="1" fill-rule="nonzero"/><path fill="rgb(22.349548%, 15.689087%, 11.369324%)" d="M 309.617188 155.023438 C 309.84375 155.253906 309.839844 155.621094 309.605469 155.847656 C 309.371094 156.074219 309 156.070312 308.773438 155.835938 C 308.546875 155.605469 308.554688 155.234375 308.785156 155.011719 C 309.015625 154.789062 309.390625 154.792969 309.617188 155.023438 " fill-opacity="1" fill-rule="nonzero"/><path fill="rgb(22.349548%, 15.689087%, 11.369324%)" d="M 314.632812 149.839844 C 314.867188 150.0625 314.882812 150.433594 314.664062 150.675781 C 314.449219 150.917969 314.074219 150.925781 313.839844 150.703125 C 313.601562 150.480469 313.597656 150.113281 313.808594 149.871094 C 314.027344 149.632812 314.394531 149.621094 314.632812 149.839844 " fill-opacity="1" fill-rule="nonzero"/><path fill="rgb(22.349548%, 15.689087%, 11.369324%)" d="M 319.433594 144.460938 C 319.675781 144.671875 319.703125 145.042969 319.492188 145.289062 C 319.28125 145.535156 318.914062 145.5625 318.667969 145.347656 C 318.425781 145.136719 318.398438 144.765625 318.609375 144.519531 C 318.820312 144.273438 319.1875 144.246094 319.433594 144.460938 " fill-opacity="1" fill-rule="nonzero"/><path fill="rgb(22.349548%, 15.689087%, 11.369324%)" d="M 324.046875 138.914062 C 324.296875 139.117188 324.335938 139.484375 324.132812 139.738281 C 323.925781 139.992188 323.558594 140.027344 323.308594 139.824219 C 323.058594 139.621094 323.019531 139.25 323.222656 139 C 323.425781 138.75 323.792969 138.710938 324.046875 138.914062 " fill-opacity="1" fill-rule="nonzero"/><path fill="rgb(22.349548%, 15.689087%, 11.369324%)" d="M 328.480469 133.222656 C 328.738281 133.421875 328.785156 133.789062 328.585938 134.042969 C 328.390625 134.300781 328.023438 134.351562 327.765625 134.15625 C 327.507812 133.960938 327.457031 133.589844 327.652344 133.335938 C 327.847656 133.078125 328.21875 133.03125 328.480469 133.222656 " fill-opacity="1" fill-rule="nonzero"/><path fill="rgb(22.349548%, 15.689087%, 11.369324%)" d="M 332.738281 127.40625 C 333.003906 127.589844 333.0625 127.957031 332.871094 128.21875 C 332.679688 128.484375 332.3125 128.542969 332.050781 128.355469 C 331.789062 128.164062 331.730469 127.800781 331.917969 127.539062 C 332.109375 127.277344 332.472656 127.21875 332.738281 127.40625 " fill-opacity="1" fill-rule="nonzero"/><path fill="rgb(22.349548%, 15.689087%, 11.369324%)" d="M 336.839844 121.46875 C 337.105469 121.648438 337.175781 122.011719 336.992188 122.28125 C 336.808594 122.546875 336.441406 122.617188 336.175781 122.433594 C 335.90625 122.253906 335.839844 121.890625 336.019531 121.625 C 336.203125 121.359375 336.570312 121.289062 336.839844 121.46875 " fill-opacity="1" fill-rule="nonzero"/><path fill="rgb(22.349548%, 15.689087%, 11.369324%)" d="M 340.785156 115.429688 C 341.058594 115.605469 341.136719 115.964844 340.960938 116.238281 C 340.78125 116.511719 340.414062 116.585938 340.144531 116.410156 C 339.875 116.238281 339.792969 115.875 339.972656 115.605469 C 340.148438 115.335938 340.515625 115.257812 340.785156 115.429688 " fill-opacity="1" fill-rule="nonzero"/><path fill="rgb(22.349548%, 15.689087%, 11.369324%)" d="M 344.589844 109.300781 C 344.867188 109.46875 344.953125 109.828125 344.78125 110.105469 C 344.609375 110.378906 344.246094 110.464844 343.96875 110.296875 C 343.695312 110.128906 343.609375 109.769531 343.78125 109.496094 C 343.949219 109.21875 344.3125 109.132812 344.589844 109.300781 " fill-opacity="1" fill-rule="nonzero"/><path fill="rgb(22.349548%, 15.689087%, 11.369324%)" d="M 348.261719 103.089844 C 348.542969 103.25 348.632812 103.609375 348.46875 103.886719 C 348.304688 104.167969 347.941406 104.261719 347.664062 104.097656 C 347.386719 103.933594 347.289062 103.578125 347.457031 103.296875 C 347.621094 103.019531 347.980469 102.925781 348.261719 103.089844 " fill-opacity="1" fill-rule="nonzero"/><path fill="rgb(22.349548%, 15.689087%, 11.369324%)" d="M 352.351562 105.3125 C 352.023438 105.3125 351.761719 105.050781 351.761719 104.726562 C 351.761719 104.40625 352.023438 104.140625 352.351562 104.140625 C 352.671875 104.140625 352.933594 104.40625 352.933594 104.726562 C 352.933594 105.050781 352.671875 105.3125 352.351562 105.3125 " fill-opacity="1" fill-rule="nonzero"/><path fill="rgb(22.349548%, 15.689087%, 11.369324%)" d="M 351.695312 98.09375 C 351.371094 98.09375 351.109375 97.832031 351.109375 97.507812 C 351.109375 97.183594 351.371094 96.921875 351.695312 96.921875 C 352.015625 96.921875 352.277344 97.183594 352.277344 97.507812 C 352.277344 97.832031 352.015625 98.09375 351.695312 98.09375 " fill-opacity="1" fill-rule="nonzero"/><path fill="rgb(22.349548%, 15.689087%, 11.369324%)" d="M 352.351562 112.507812 C 352.023438 112.507812 351.761719 112.246094 351.761719 111.921875 C 351.761719 111.597656 352.023438 111.335938 352.351562 111.335938 C 352.671875 111.335938 352.933594 111.597656 352.933594 111.921875 C 352.933594 112.246094 352.671875 112.507812 352.351562 112.507812 " fill-opacity="1" fill-rule="nonzero"/><path fill="rgb(22.349548%, 15.689087%, 11.369324%)" d="M 352.351562 119.703125 C 352.023438 119.703125 351.761719 119.4375 351.761719 119.113281 C 351.761719 118.792969 352.023438 118.527344 352.351562 118.527344 C 352.671875 118.527344 352.933594 118.792969 352.933594 119.113281 C 352.933594 119.4375 352.671875 119.703125 352.351562 119.703125 " fill-opacity="1" fill-rule="nonzero"/><path fill="rgb(22.349548%, 15.689087%, 11.369324%)" d="M 352.351562 126.894531 C 352.023438 126.894531 351.761719 126.628906 351.761719 126.308594 C 351.761719 125.984375 352.023438 125.722656 352.351562 125.722656 C 352.671875 125.722656 352.933594 125.984375 352.933594 126.308594 C 352.933594 126.628906 352.671875 126.894531 352.351562 126.894531 " fill-opacity="1" fill-rule="nonzero"/><path fill="rgb(22.349548%, 15.689087%, 11.369324%)" d="M 352.351562 134.085938 C 352.023438 134.085938 351.761719 133.824219 351.761719 133.5 C 351.761719 133.175781 352.023438 132.914062 352.351562 132.914062 C 352.671875 132.914062 352.933594 133.175781 352.933594 133.5 C 352.933594 133.824219 352.671875 134.085938 352.351562 134.085938 " fill-opacity="1" fill-rule="nonzero"/><path fill="rgb(22.349548%, 15.689087%, 11.369324%)" d="M 352.351562 141.277344 C 352.023438 141.277344 351.761719 141.015625 351.761719 140.691406 C 351.761719 140.371094 352.023438 140.105469 352.351562 140.105469 C 352.671875 140.105469 352.933594 140.371094 352.933594 140.691406 C 352.933594 141.015625 352.671875 141.277344 352.351562 141.277344 " fill-opacity="1" fill-rule="nonzero"/><path fill="rgb(22.349548%, 15.689087%, 11.369324%)" d="M 352.351562 148.472656 C 352.023438 148.472656 351.761719 148.210938 351.761719 147.886719 C 351.761719 147.5625 352.023438 147.300781 352.351562 147.300781 C 352.671875 147.300781 352.933594 147.5625 352.933594 147.886719 C 352.933594 148.210938 352.671875 148.472656 352.351562 148.472656 " fill-opacity="1" fill-rule="nonzero"/><path fill="rgb(22.349548%, 15.689087%, 11.369324%)" d="M 352.351562 155.664062 C 352.023438 155.664062 351.761719 155.402344 351.761719 155.078125 C 351.761719 154.753906 352.023438 154.492188 352.351562 154.492188 C 352.671875 154.492188 352.933594 154.753906 352.933594 155.078125 C 352.933594 155.402344 352.671875 155.664062 352.351562 155.664062 " fill-opacity="1" fill-rule="nonzero"/><path fill="rgb(22.349548%, 15.689087%, 11.369324%)" d="M 352.351562 162.859375 C 352.023438 162.859375 351.761719 162.59375 351.761719 162.273438 C 351.761719 161.949219 352.023438 161.683594 352.351562 161.683594 C 352.671875 161.683594 352.933594 161.949219 352.933594 162.273438 C 352.933594 162.59375 352.671875 162.859375 352.351562 162.859375 " fill-opacity="1" fill-rule="nonzero"/><path fill="rgb(22.349548%, 15.689087%, 11.369324%)" d="M 352.351562 170.050781 C 352.023438 170.050781 351.761719 169.789062 351.761719 169.464844 C 351.761719 169.140625 352.023438 168.878906 352.351562 168.878906 C 352.671875 168.878906 352.933594 169.140625 352.933594 169.464844 C 352.933594 169.789062 352.671875 170.050781 352.351562 170.050781 " fill-opacity="1" fill-rule="nonzero"/><path fill="rgb(22.349548%, 15.689087%, 11.369324%)" d="M 352.351562 177.242188 C 352.023438 177.242188 351.761719 176.980469 351.761719 176.65625 C 351.761719 176.332031 352.023438 176.070312 352.351562 176.070312 C 352.671875 176.070312 352.933594 176.332031 352.933594 176.65625 C 352.933594 176.980469 352.671875 177.242188 352.351562 177.242188 " fill-opacity="1" fill-rule="nonzero"/><path fill="rgb(22.349548%, 15.689087%, 11.369324%)" d="M 352.351562 184.4375 C 352.023438 184.4375 351.761719 184.175781 351.761719 183.851562 C 351.761719 183.527344 352.023438 183.265625 352.351562 183.265625 C 352.671875 183.265625 352.933594 183.527344 352.933594 183.851562 C 352.933594 184.175781 352.671875 184.4375 352.351562 184.4375 " fill-opacity="1" fill-rule="nonzero"/><path fill="rgb(22.349548%, 15.689087%, 11.369324%)" d="M 352.351562 191.628906 C 352.023438 191.628906 351.761719 191.367188 351.761719 191.042969 C 351.761719 190.71875 352.023438 190.457031 352.351562 190.457031 C 352.671875 190.457031 352.933594 190.71875 352.933594 191.042969 C 352.933594 191.367188 352.671875 191.628906 352.351562 191.628906 " fill-opacity="1" fill-rule="nonzero"/><path fill="rgb(22.349548%, 15.689087%, 11.369324%)" d="M 352.351562 198.820312 C 352.023438 198.820312 351.761719 198.558594 351.761719 198.238281 C 351.761719 197.914062 352.023438 197.648438 352.351562 197.648438 C 352.671875 197.648438 352.933594 197.914062 352.933594 198.238281 C 352.933594 198.558594 352.671875 198.820312 352.351562 198.820312 " fill-opacity="1" fill-rule="nonzero"/><path fill="rgb(22.349548%, 15.689087%, 11.369324%)" d="M 352.351562 206.015625 C 352.023438 206.015625 351.761719 205.753906 351.761719 205.429688 C 351.761719 205.105469 352.023438 204.84375 352.351562 204.84375 C 352.671875 204.84375 352.933594 205.105469 352.933594 205.429688 C 352.933594 205.753906 352.671875 206.015625 352.351562 206.015625 " fill-opacity="1" fill-rule="nonzero"/><path fill="rgb(22.349548%, 15.689087%, 11.369324%)" d="M 352.351562 213.207031 C 352.023438 213.207031 351.761719 212.945312 351.761719 212.625 C 351.761719 212.296875 352.023438 212.035156 352.351562 212.035156 C 352.671875 212.035156 352.933594 212.296875 352.933594 212.625 C 352.933594 212.945312 352.671875 213.207031 352.351562 213.207031 " fill-opacity="1" fill-rule="nonzero"/><path fill="rgb(22.349548%, 15.689087%, 11.369324%)" d="M 352.320312 146.023438 C 351.253906 146.023438 350.390625 146.886719 350.390625 147.953125 C 350.390625 149.015625 351.253906 149.882812 352.320312 149.882812 C 353.382812 149.882812 354.246094 149.015625 354.246094 147.953125 C 354.246094 146.886719 353.382812 146.023438 352.320312 146.023438 Z M 352.320312 150.921875 C 350.683594 150.921875 349.351562 149.589844 349.351562 147.953125 C 349.351562 146.3125 350.683594 144.984375 352.320312 144.984375 C 353.953125 144.984375 355.285156 146.3125 355.285156 147.953125 C 355.285156 149.589844 353.953125 150.921875 352.320312 150.921875 " fill-opacity="1" fill-rule="nonzero"/><path fill="rgb(22.349548%, 15.689087%, 11.369324%)" d="M 284.964844 231.347656 C 283.902344 231.347656 283.039062 232.210938 283.039062 233.273438 C 283.039062 234.339844 283.902344 235.203125 284.964844 235.203125 C 286.027344 235.203125 286.894531 234.339844 286.894531 233.273438 C 286.894531 232.210938 286.027344 231.347656 284.964844 231.347656 Z M 284.964844 236.246094 C 283.328125 236.246094 282 234.914062 282 233.273438 C 282 231.636719 283.328125 230.304688 284.964844 230.304688 C 286.601562 230.304688 287.933594 231.636719 287.933594 233.273438 C 287.933594 234.914062 286.601562 236.246094 284.964844 236.246094 " fill-opacity="1" fill-rule="nonzero"/><path fill="rgb(22.349548%, 15.689087%, 11.369324%)" d="M 224.65625 182.941406 C 223.59375 182.941406 222.730469 183.804688 222.730469 184.871094 C 222.730469 185.933594 223.59375 186.800781 224.65625 186.800781 C 225.722656 186.800781 226.585938 185.933594 226.585938 184.871094 C 226.585938 183.804688 225.722656 182.941406 224.65625 182.941406 Z M 224.65625 187.839844 C 223.023438 187.839844 221.691406 186.507812 221.691406 184.871094 C 221.691406 183.234375 223.023438 181.898438 224.65625 181.898438 C 226.292969 181.898438 227.625 183.234375 227.625 184.871094 C 227.625 186.507812 226.292969 187.839844 224.65625 187.839844 " fill-opacity="1" fill-rule="nonzero"/><path fill="rgb(22.349548%, 15.689087%, 11.369324%)" d="M 147.308594 225.109375 C 146.246094 225.109375 145.378906 225.976562 145.378906 227.039062 C 145.378906 228.105469 146.246094 228.96875 147.308594 228.96875 C 148.371094 228.96875 149.234375 228.105469 149.234375 227.039062 C 149.234375 225.976562 148.371094 225.109375 147.308594 225.109375 Z M 147.308594 230.011719 C 145.671875 230.011719 144.339844 228.679688 144.339844 227.039062 C 144.339844 225.402344 145.671875 224.070312 147.308594 224.070312 C 148.941406 224.070312 150.273438 225.402344 150.273438 227.039062 C 150.273438 228.679688 148.941406 230.011719 147.308594 230.011719 " fill-opacity="1" fill-rule="nonzero"/><path fill="rgb(22.349548%, 15.689087%, 11.369324%)" d="M 187.292969 292.878906 C 186.230469 292.878906 185.367188 293.742188 185.367188 294.808594 C 185.367188 295.871094 186.230469 296.738281 187.292969 296.738281 C 188.355469 296.738281 189.222656 295.871094 189.222656 294.808594 C 189.222656 293.742188 188.355469 292.878906 187.292969 292.878906 Z M 187.292969 297.777344 C 185.65625 297.777344 184.328125 296.445312 184.328125 294.808594 C 184.328125 293.167969 185.65625 291.835938 187.292969 291.835938 C 188.929688 291.835938 190.261719 293.167969 190.261719 294.808594 C 190.261719 296.445312 188.929688 297.777344 187.292969 297.777344 " fill-opacity="1" fill-rule="nonzero"/><path fill="rgb(22.349548%, 15.689087%, 11.369324%)" d="M 232.6875 126.167969 C 231.625 126.167969 230.761719 127.035156 230.761719 128.097656 C 230.761719 129.164062 231.625 130.027344 232.6875 130.027344 C 233.75 130.027344 234.613281 129.164062 234.613281 128.097656 C 234.613281 127.035156 233.75 126.167969 232.6875 126.167969 Z M 232.6875 131.066406 C 231.050781 131.066406 229.722656 129.734375 229.722656 128.097656 C 229.722656 126.460938 231.050781 125.128906 232.6875 125.128906 C 234.324219 125.128906 235.65625 126.460938 235.65625 128.097656 C 235.65625 129.734375 234.324219 131.066406 232.6875 131.066406 " fill-opacity="1" fill-rule="nonzero"/><path fill="rgb(22.349548%, 15.689087%, 11.369324%)" d="M 134.363281 123.871094 C 133.296875 123.871094 132.433594 124.738281 132.433594 125.800781 C 132.433594 126.863281 133.296875 127.730469 134.363281 127.730469 C 135.425781 127.730469 136.289062 126.863281 136.289062 125.800781 C 136.289062 124.738281 135.425781 123.871094 134.363281 123.871094 Z M 134.363281 128.769531 C 132.726562 128.769531 131.394531 127.4375 131.394531 125.800781 C 131.394531 124.164062 132.726562 122.832031 134.363281 122.832031 C 135.996094 122.832031 137.328125 124.164062 137.328125 125.800781 C 137.328125 127.4375 135.996094 128.769531 134.363281 128.769531 " fill-opacity="1" fill-rule="nonzero"/><path fill="rgb(22.349548%, 15.689087%, 11.369324%)" d="M 70.777344 92.53125 C 69.714844 92.53125 68.847656 93.398438 68.847656 94.460938 C 68.847656 95.527344 69.714844 96.390625 70.777344 96.390625 C 71.839844 96.390625 72.703125 95.527344 72.703125 94.460938 C 72.703125 93.398438 71.839844 92.53125 70.777344 92.53125 Z M 70.777344 97.433594 C 69.140625 97.433594 67.8125 96.097656 67.8125 94.460938 C 67.8125 92.824219 69.140625 91.492188 70.777344 91.492188 C 72.410156 91.492188 73.742188 92.824219 73.742188 94.460938 C 73.742188 96.097656 72.410156 97.433594 70.777344 97.433594 " fill-opacity="1" fill-rule="nonzero"/><path fill="rgb(22.349548%, 15.689087%, 11.369324%)" d="M 77.496094 170.144531 C 76.433594 170.144531 75.570312 171.007812 75.570312 172.074219 C 75.570312 173.136719 76.433594 174.003906 77.496094 174.003906 C 78.558594 174.003906 79.421875 173.136719 79.421875 172.074219 C 79.421875 171.007812 78.558594 170.144531 77.496094 170.144531 Z M 77.496094 175.042969 C 75.859375 175.042969 74.53125 173.710938 74.53125 172.074219 C 74.53125 170.433594 75.859375 169.101562 77.496094 169.101562 C 79.132812 169.101562 80.460938 170.433594 80.460938 172.074219 C 80.460938 173.710938 79.132812 175.042969 77.496094 175.042969 " fill-opacity="1" fill-rule="nonzero"/><path fill="rgb(22.349548%, 15.689087%, 11.369324%)" d="M 29.644531 137.328125 C 28.582031 137.328125 27.714844 138.191406 27.714844 139.253906 C 27.714844 140.320312 28.582031 141.1875 29.644531 141.1875 C 30.707031 141.1875 31.570312 140.320312 31.570312 139.253906 C 31.570312 138.191406 30.707031 137.328125 29.644531 137.328125 Z M 29.644531 142.226562 C 28.007812 142.226562 26.675781 140.894531 26.675781 139.253906 C 26.675781 137.617188 28.007812 136.285156 29.644531 136.285156 C 31.277344 136.285156 32.609375 137.617188 32.609375 139.253906 C 32.609375 140.894531 31.277344 142.226562 29.644531 142.226562 " fill-opacity="1" fill-rule="nonzero"/><path fill="rgb(22.349548%, 15.689087%, 11.369324%)" d="M 303.972656 94.335938 C 302.910156 94.335938 302.046875 95.203125 302.046875 96.265625 C 302.046875 97.332031 302.910156 98.195312 303.972656 98.195312 C 305.035156 98.195312 305.902344 97.332031 305.902344 96.265625 C 305.902344 95.203125 305.035156 94.335938 303.972656 94.335938 Z M 303.972656 99.234375 C 302.339844 99.234375 301.007812 97.902344 301.007812 96.265625 C 301.007812 94.628906 302.339844 93.296875 303.972656 93.296875 C 305.609375 93.296875 306.941406 94.628906 306.941406 96.265625 C 306.941406 97.902344 305.609375 99.234375 303.972656 99.234375 " fill-opacity="1" fill-rule="nonzero"/><path fill="rgb(22.349548%, 15.689087%, 11.369324%)" d="M 352.320312 219.796875 C 351.160156 222.265625 350.070312 225.566406 350.859375 226.898438 C 351.011719 227.167969 351.335938 227.523438 352.320312 227.523438 C 353.300781 227.523438 353.625 227.167969 353.78125 226.898438 C 354.570312 225.5625 353.480469 222.265625 352.320312 219.796875 Z M 352.320312 229.132812 C 350.65625 229.132812 349.855469 228.363281 349.472656 227.71875 C 347.753906 224.800781 351.214844 218.355469 351.613281 217.628906 L 352.320312 216.355469 L 353.023438 217.628906 C 353.421875 218.355469 356.882812 224.800781 355.164062 227.71875 C 354.785156 228.363281 353.980469 229.132812 352.320312 229.132812 " fill-opacity="1" fill-rule="nonzero"/><path fill="rgb(22.349548%, 15.689087%, 11.369324%)" d="M 284.964844 280.011719 C 283.804688 282.488281 282.714844 285.785156 283.503906 287.117188 C 283.660156 287.386719 283.984375 287.742188 284.964844 287.742188 C 285.945312 287.742188 286.269531 287.386719 286.425781 287.117188 C 287.214844 285.78125 286.125 282.484375 284.964844 280.011719 Z M 284.964844 289.351562 C 283.304688 289.351562 282.5 288.582031 282.117188 287.9375 C 280.398438 285.023438 283.863281 278.574219 284.261719 277.851562 L 284.964844 276.574219 L 285.667969 277.851562 C 286.066406 278.574219 289.527344 285.019531 287.8125 287.9375 C 287.429688 288.582031 286.628906 289.351562 284.964844 289.351562 " fill-opacity="1" fill-rule="nonzero"/><g clip-path="url(#id3)"><path fill="rgb(22.349548%, 15.689087%, 11.369324%)" d="M 187.292969 327.597656 C 186.132812 330.070312 185.046875 333.371094 185.832031 334.703125 C 185.988281 334.96875 186.3125 335.328125 187.292969 335.328125 C 188.273438 335.328125 188.597656 334.96875 188.753906 334.703125 C 189.542969 333.367188 188.453125 330.070312 187.292969 327.597656 Z M 187.292969 336.9375 C 185.632812 336.9375 184.828125 336.167969 184.449219 335.519531 C 182.730469 332.605469 186.191406 326.160156 186.589844 325.433594 L 187.292969 324.160156 L 187.996094 325.433594 C 188.398438 326.160156 191.855469 332.605469 190.140625 335.519531 C 189.761719 336.167969 188.957031 336.9375 187.292969 336.9375 " fill-opacity="1" fill-rule="nonzero"/></g><path fill="rgb(22.349548%, 15.689087%, 11.369324%)" d="M 92.574219 263.277344 C 91.414062 265.75 90.324219 269.046875 91.109375 270.382812 C 91.269531 270.648438 91.589844 271.007812 92.574219 271.007812 C 93.554688 271.007812 93.875 270.648438 94.035156 270.382812 C 94.820312 269.046875 93.734375 265.75 92.574219 263.277344 Z M 92.574219 272.613281 C 90.910156 272.613281 90.105469 271.84375 89.726562 271.199219 C 88.007812 268.285156 91.46875 261.835938 91.867188 261.113281 L 92.574219 259.839844 L 93.277344 261.113281 C 93.675781 261.835938 97.136719 268.285156 95.417969 271.199219 C 95.039062 271.84375 94.234375 272.613281 92.574219 272.613281 " fill-opacity="1" fill-rule="nonzero"/><path fill="rgb(22.349548%, 15.689087%, 11.369324%)" d="M 29.644531 185.335938 C 28.484375 187.8125 27.394531 191.109375 28.179688 192.441406 C 28.339844 192.710938 28.664062 193.066406 29.644531 193.066406 C 30.625 193.066406 30.949219 192.710938 31.105469 192.441406 C 31.894531 191.105469 30.804688 187.808594 29.644531 185.335938 Z M 29.644531 194.675781 C 27.980469 194.675781 27.175781 193.90625 26.796875 193.257812 C 25.078125 190.34375 28.539062 183.898438 28.941406 183.171875 L 29.644531 181.898438 L 30.347656 183.171875 C 30.746094 183.898438 34.207031 190.34375 32.488281 193.257812 C 32.109375 193.90625 31.304688 194.675781 29.644531 194.675781 " fill-opacity="1" fill-rule="nonzero"/><g clip-path="url(#id4)"><path fill="rgb(22.349548%, 15.689087%, 11.369324%)" d="M 373.015625 48.007812 L 368.800781 48.183594 L 370.488281 52.050781 L 366.976562 49.714844 L 366.070312 53.835938 L 364.601562 49.882812 L 361.449219 52.679688 L 362.585938 48.617188 L 358.386719 49.023438 L 361.691406 46.402344 L 358.058594 44.265625 L 362.269531 44.089844 L 360.585938 40.222656 L 364.097656 42.558594 L 365.003906 38.4375 L 366.472656 42.394531 L 369.625 39.59375 L 368.492188 43.65625 L 372.6875 43.25 L 369.382812 45.871094 L 373.015625 48.007812 " fill-opacity="1" fill-rule="nonzero"/></g><g clip-path="url(#id5)"><path fill="rgb(22.349548%, 15.689087%, 11.369324%)" d="M 26.578125 48.5 L 22.367188 48.675781 L 24.050781 52.542969 L 20.542969 50.207031 L 19.632812 54.328125 L 18.164062 50.371094 L 15.011719 53.171875 L 16.144531 49.109375 L 11.953125 49.515625 L 15.253906 46.894531 L 11.621094 44.757812 L 15.832031 44.582031 L 14.148438 40.714844 L 17.660156 43.050781 L 18.566406 38.929688 L 20.035156 42.882812 L 23.1875 40.085938 L 22.054688 44.148438 L 26.25 43.742188 L 22.945312 46.363281 L 26.578125 48.5 " fill-opacity="1" fill-rule="nonzero"/></g></svg>